# Blender v3.1.2 OBJ File: 'brush.blend'
# www.blender.org
o brush
v -0.023825 -0.063528 0.060303
v -0.012937 -0.001026 0.060303
v -0.015657 -0.061823 0.005709
v -0.007821 -0.001026 0.011404
v -0.012917 -0.061189 -0.001479
v -0.006327 -0.001026 0.004940
v -0.006991 -0.059898 -0.006642
v -0.003806 -0.001026 0.000621
v 0.000000 -0.058991 -0.008889
v 0.000000 -0.001026 -0.000896
v 0.006991 -0.059898 -0.006642
v 0.003806 -0.001026 0.000621
v 0.012917 -0.061189 -0.001479
v 0.006327 -0.001026 0.004940
v 0.015657 -0.061823 0.005709
v 0.007821 -0.001026 0.011404
v 0.023825 -0.063528 0.060303
v 0.012937 -0.001026 0.060303
v 0.024145 -0.063239 0.121049
v 0.013200 -0.001026 0.114622
v 0.018567 -0.061344 0.136401
v 0.010103 -0.001026 0.121086
v 0.010043 -0.058514 0.146780
v 0.005468 -0.001026 0.125405
v -0.000000 -0.057183 0.149989
v -0.000000 -0.001026 0.126922
v -0.010043 -0.058514 0.146780
v -0.005468 -0.001026 0.125405
v -0.018567 -0.061344 0.136401
v -0.010103 -0.001026 0.121086
v -0.024145 -0.063239 0.121049
v -0.013200 -0.001026 0.114622
v -0.000000 -0.063239 0.121049
v 0.000000 -0.063528 0.060303
v 0.000000 -0.061823 0.005709
v 0.000000 -0.061189 -0.001479
v 0.025081 -0.063528 0.090416
v 0.013069 -0.001026 0.087463
v -0.025081 -0.063528 0.090416
v -0.013069 -0.001026 0.087463
v -0.000000 -0.063528 0.090416
v -0.019893 -0.063528 0.033006
v -0.011325 -0.001026 0.035854
v 0.019893 -0.063528 0.033006
v 0.011325 -0.001026 0.035854
v 0.000000 -0.063528 0.033006
v -0.015279 -0.032277 0.060303
v -0.011269 -0.032277 0.009946
v -0.009028 -0.032277 0.003120
v -0.004886 -0.032277 -0.001621
v 0.000000 -0.032277 -0.003258
v 0.004886 -0.032277 -0.001621
v 0.009028 -0.032277 0.003120
v 0.011269 -0.032277 0.009946
v 0.015279 -0.032277 0.060303
v 0.015572 -0.031611 0.117401
v 0.012706 -0.031330 0.126586
v 0.006934 -0.030699 0.132701
v -0.000000 -0.029626 0.136371
v -0.006934 -0.030699 0.132701
v -0.012706 -0.031330 0.126586
v -0.015572 -0.031611 0.117401
v -0.015877 -0.032277 0.088592
v 0.015877 -0.032277 0.088592
v 0.013846 -0.032277 0.034430
v -0.013846 -0.032277 0.034430
v 0.000001 0.063104 -0.132400
v 0.004062 0.062355 -0.132703
v 0.000001 0.063528 -0.140104
v 0.002966 0.063003 -0.140146
v 0.007504 0.060223 -0.133565
v 0.009804 0.057031 -0.134855
v 0.010612 0.053267 -0.136377
v 0.009804 0.049502 -0.137899
v 0.005931 0.061175 -0.140321
v 0.007691 0.058622 -0.141917
v 0.008194 0.055932 -0.143174
v 0.007691 0.053125 -0.144139
v 0.007504 0.046311 -0.139189
v 0.004062 0.044178 -0.140052
v 0.000001 0.043429 -0.140354
v 0.005931 0.050180 -0.144766
v 0.002966 0.048744 -0.145910
v 0.000001 0.048337 -0.146245
v 0.000001 0.051579 -0.148931
v 0.000001 0.055347 -0.149989
v 0.000001 0.058472 -0.149456
v 0.000001 0.061089 -0.147668
v 0.000001 0.063063 -0.144289
v 0.002530 0.051706 -0.148540
v 0.002966 0.055244 -0.149382
v 0.003098 0.058218 -0.148829
v 0.002966 0.060741 -0.147159
v 0.002530 0.062701 -0.144095
v 0.005058 0.052123 -0.147244
v 0.005931 0.054859 -0.147265
v 0.006195 0.057321 -0.146610
v 0.005931 0.059547 -0.145370
v 0.005058 0.061500 -0.143454
v 0.000001 0.035465 -0.053483
v 0.004544 0.034627 -0.053821
v 0.008396 0.032241 -0.054786
v 0.010969 0.028670 -0.056230
v 0.011873 0.024458 -0.057932
v 0.010969 0.020246 -0.059635
v 0.008396 0.016676 -0.061079
v 0.004544 0.014290 -0.062043
v 0.000001 0.013452 -0.062382
v 0.000001 0.050129 -0.087398
v 0.012903 0.032228 -0.094635
v 0.013966 0.037182 -0.092632
v 0.005345 0.049144 -0.087796
v 0.009876 0.028027 -0.096333
v 0.000001 0.024235 -0.097866
v 0.005345 0.025221 -0.097468
v 0.009876 0.046337 -0.088931
v 0.012903 0.042137 -0.090629
v 0.000001 0.056574 -0.105110
v 0.012845 0.038753 -0.112314
v 0.005321 0.055593 -0.105506
v 0.009832 0.034571 -0.114005
v 0.000001 0.030796 -0.115531
v 0.009832 0.052799 -0.106636
v 0.013903 0.043685 -0.110320
v 0.005321 0.031777 -0.115134
v 0.012845 0.048617 -0.108326
v 0.000001 0.061118 -0.122274
v 0.011312 0.045424 -0.128619
v 0.004686 0.060254 -0.122623
v 0.008658 0.041742 -0.130107
v 0.000001 0.038417 -0.131451
v 0.008658 0.057794 -0.123618
v 0.012244 0.049768 -0.126863
v 0.004686 0.039281 -0.131102
v 0.011312 0.054112 -0.125107
v 0.013529 0.029919 -0.072862
v 0.005178 0.018332 -0.077546
v 0.012499 0.034719 -0.070921
v 0.000001 0.042461 -0.067791
v 0.012499 0.025120 -0.074802
v 0.005178 0.041506 -0.068177
v 0.009567 0.021051 -0.076447
v 0.000001 0.017377 -0.077932
v 0.009567 0.038788 -0.069276
v 0.000001 0.030601 -0.048307
v 0.003540 0.029949 -0.048570
v 0.006540 0.028090 -0.049322
v 0.008544 0.025309 -0.050446
v 0.009248 0.022029 -0.051772
v 0.008544 0.018748 -0.053098
v 0.006540 0.015967 -0.054223
v 0.003540 0.014108 -0.054974
v 0.000001 0.013456 -0.055238
v 0.000001 0.018089 -0.014725
v 0.003173 0.017639 -0.014962
v 0.005862 0.016457 -0.015365
v 0.007687 0.013933 -0.016282
v 0.008187 0.010486 -0.017569
v 0.007659 0.006841 -0.019021
v 0.005862 0.004348 -0.020029
v 0.003173 0.002682 -0.020702
v 0.000001 0.002098 -0.020938
v 0.002542 0.018657 -0.024366
v 0.002468 0.021679 -0.033267
v 0.002772 0.025546 -0.041826
v 0.000001 0.026057 -0.041619
v 0.000001 0.022134 -0.033083
v 0.000001 0.019125 -0.024177
v 0.004696 0.017322 -0.024906
v 0.004560 0.020383 -0.033791
v 0.005121 0.024091 -0.042414
v 0.006136 0.015325 -0.025713
v 0.005957 0.018444 -0.034575
v 0.006691 0.021913 -0.043295
v 0.006641 0.012969 -0.026666
v 0.006448 0.016157 -0.035499
v 0.007242 0.019344 -0.044333
v 0.006136 0.010613 -0.027618
v 0.005957 0.013870 -0.036424
v 0.006691 0.016775 -0.045372
v 0.004696 0.008616 -0.028425
v 0.004560 0.011931 -0.037208
v 0.005121 0.014598 -0.046252
v 0.002542 0.007282 -0.028965
v 0.002468 0.010635 -0.037732
v 0.002772 0.013142 -0.046841
v 0.000001 0.006813 -0.029154
v 0.000001 0.010180 -0.037916
v 0.000001 0.012632 -0.047047
v 0.017111 0.011517 0.115417
v 0.017486 0.011413 0.097073
v 0.017238 0.011313 0.072393
v 0.016286 0.011178 0.048803
v 0.014341 0.011033 0.025231
v 0.017111 0.005007 0.115417
v 0.017486 0.005012 0.097073
v 0.017238 0.005016 0.072393
v 0.016286 0.005023 0.048803
v 0.014341 0.005029 0.025231
v 0.017111 -0.001026 0.115417
v 0.017486 -0.001026 0.097073
v 0.017238 -0.001026 0.072393
v 0.016286 -0.001026 0.048803
v 0.014341 -0.001026 0.025231
v 0.014341 0.016665 0.025231
v 0.016286 0.016665 0.048803
v 0.017238 0.016665 0.072393
v 0.017486 0.016665 0.097073
v 0.017111 0.016665 0.115417
v 0.009228 0.017877 0.025231
v 0.010710 0.017914 0.048803
v 0.011432 0.017938 0.072393
v 0.011587 0.017936 0.097073
v 0.011393 0.017520 0.113985
v 0.004632 0.018647 0.025231
v 0.005304 0.018681 0.048803
v 0.000001 0.018237 -0.007843
v 0.003391 0.017948 -0.007843
v 0.006818 0.016922 -0.007843
v 0.009627 0.015230 -0.007843
v 0.010298 0.010796 -0.007843
v 0.009640 0.005038 -0.007843
v 0.007870 -0.001026 -0.005461
v 0.003988 -0.001026 -0.010631
v 0.000001 -0.001026 -0.011557
v 0.005748 0.018681 0.072393
v 0.005790 0.018650 0.097073
v 0.005568 0.018222 0.113015
v 0.000001 0.018957 0.025231
v 0.000001 0.018991 0.048803
v 0.000001 0.018991 0.072393
v 0.000001 0.018788 0.097073
v 0.000001 0.016665 0.132901
v 0.005126 0.016665 0.132001
v 0.010997 0.016665 0.129850
v 0.015304 0.016665 0.124439
v 0.000001 0.005000 0.132901
v 0.000001 0.011675 0.132901
v 0.010997 -0.001026 0.129850
v 0.005126 -0.001026 0.132001
v 0.000001 -0.001026 0.132901
v 0.000001 0.018370 0.112919
v 0.005126 0.011675 0.132001
v 0.005126 0.005000 0.132001
v 0.010997 0.005000 0.129850
v 0.010997 0.011675 0.129850
v 0.015304 0.011675 0.124439
v 0.015304 0.005000 0.124439
v 0.015304 -0.001026 0.124439
v 0.000001 -0.001026 0.025231
v 0.006830 -0.001026 0.025231
v 0.000001 -0.001026 0.048803
v 0.007889 -0.001026 0.048803
v 0.000001 -0.001026 0.072393
v 0.000001 -0.001026 0.097073
v 0.000001 -0.001026 0.115417
v 0.008078 -0.001026 0.072393
v 0.008243 -0.001026 0.097073
v 0.008142 -0.001026 0.115417
v 0.012293 0.010866 0.006031
v 0.011970 0.005034 0.006031
v 0.010858 -0.001026 0.006031
v 0.000001 0.018856 0.006031
v 0.003855 0.018479 0.006031
v 0.007797 0.017733 0.006031
v 0.011964 0.016376 0.006031
v 0.000001 -0.001026 0.006031
v 0.005573 -0.001026 0.006031
v 0.000001 -0.001026 0.124979
v 0.007157 -0.001026 0.125049
v -0.004059 0.062355 -0.132703
v -0.002964 0.063003 -0.140146
v -0.007502 0.060223 -0.133565
v -0.009802 0.057031 -0.134855
v -0.010610 0.053267 -0.136377
v -0.009802 0.049502 -0.137899
v -0.005929 0.061175 -0.140321
v -0.007689 0.058622 -0.141917
v -0.008192 0.055932 -0.143174
v -0.007689 0.053125 -0.144139
v -0.007502 0.046311 -0.139189
v -0.004059 0.044178 -0.140052
v -0.005929 0.050180 -0.144766
v -0.002964 0.048744 -0.145910
v -0.002527 0.051706 -0.148540
v -0.002964 0.055244 -0.149382
v -0.003095 0.058218 -0.148829
v -0.002964 0.060741 -0.147159
v -0.002527 0.062701 -0.144095
v -0.005056 0.052123 -0.147244
v -0.005929 0.054859 -0.147265
v -0.006192 0.057321 -0.146610
v -0.005929 0.059547 -0.145370
v -0.005056 0.061500 -0.143454
v -0.004542 0.034627 -0.053821
v -0.008393 0.032241 -0.054786
v -0.010967 0.028670 -0.056230
v -0.011870 0.024458 -0.057932
v -0.010967 0.020246 -0.059635
v -0.008393 0.016676 -0.061079
v -0.004542 0.014290 -0.062043
v -0.012901 0.032228 -0.094635
v -0.013964 0.037182 -0.092632
v -0.005343 0.049144 -0.087796
v -0.009873 0.028027 -0.096333
v -0.005343 0.025221 -0.097468
v -0.009873 0.046337 -0.088931
v -0.012901 0.042137 -0.090629
v -0.012843 0.038753 -0.112314
v -0.005319 0.055593 -0.105506
v -0.009829 0.034571 -0.114005
v -0.009829 0.052799 -0.106636
v -0.013901 0.043685 -0.110320
v -0.005319 0.031777 -0.115134
v -0.012843 0.048617 -0.108326
v -0.011310 0.045424 -0.128619
v -0.004684 0.060254 -0.122623
v -0.008656 0.041742 -0.130107
v -0.008656 0.057794 -0.123618
v -0.012242 0.049768 -0.126863
v -0.004684 0.039281 -0.131102
v -0.011310 0.054112 -0.125107
v -0.013527 0.029919 -0.072862
v -0.005176 0.018332 -0.077546
v -0.012497 0.034719 -0.070921
v -0.012497 0.025120 -0.074802
v -0.005176 0.041506 -0.068177
v -0.009564 0.021051 -0.076447
v -0.009564 0.038788 -0.069276
v -0.003537 0.029949 -0.048570
v -0.006537 0.028090 -0.049322
v -0.008541 0.025309 -0.050446
v -0.009245 0.022029 -0.051772
v -0.008541 0.018748 -0.053098
v -0.006537 0.015967 -0.054223
v -0.003537 0.014108 -0.054974
v -0.003170 0.017639 -0.014962
v -0.005859 0.016457 -0.015365
v -0.007684 0.013933 -0.016282
v -0.008185 0.010486 -0.017569
v -0.007656 0.006841 -0.019021
v -0.005859 0.004348 -0.020029
v -0.003170 0.002682 -0.020702
v -0.002540 0.018657 -0.024366
v -0.002466 0.021679 -0.033267
v -0.002769 0.025546 -0.041826
v -0.004694 0.017322 -0.024906
v -0.004557 0.020383 -0.033791
v -0.005119 0.024091 -0.042414
v -0.006133 0.015325 -0.025713
v -0.005955 0.018444 -0.034575
v -0.006688 0.021913 -0.043295
v -0.006639 0.012969 -0.026666
v -0.006445 0.016157 -0.035499
v -0.007239 0.019344 -0.044333
v -0.006133 0.010613 -0.027618
v -0.005955 0.013870 -0.036424
v -0.006688 0.016775 -0.045372
v -0.004694 0.008616 -0.028425
v -0.004557 0.011931 -0.037208
v -0.005119 0.014598 -0.046252
v -0.002540 0.007282 -0.028965
v -0.002466 0.010635 -0.037732
v -0.002769 0.013142 -0.046841
v -0.017109 0.011517 0.115417
v -0.017483 0.011413 0.097073
v -0.017235 0.011313 0.072393
v 0.000001 0.017414 0.127500
v 0.010737 0.017360 0.121268
v 0.005302 0.017388 0.126636
v 0.008588 0.017328 0.124899
v 0.005440 0.017995 0.120687
v -0.016284 0.011178 0.048803
v -0.014339 0.011033 0.025231
v -0.017109 0.005007 0.115417
v -0.017483 0.005012 0.097073
v -0.017235 0.005016 0.072393
v -0.016284 0.005023 0.048803
v -0.014339 0.005029 0.025231
v -0.017109 -0.001026 0.115417
v -0.017483 -0.001026 0.097073
v -0.017235 -0.001026 0.072393
v -0.016284 -0.001026 0.048803
v -0.014339 -0.001026 0.025231
v -0.014339 0.016665 0.025231
v -0.016284 0.016665 0.048803
v -0.017235 0.016665 0.072393
v -0.017483 0.016665 0.097073
v -0.017109 0.016665 0.115417
v -0.009226 0.017877 0.025231
v -0.010708 0.017914 0.048803
v -0.011430 0.017938 0.072393
v -0.011584 0.017936 0.097073
v -0.011391 0.017520 0.113985
v -0.004629 0.018647 0.025231
v -0.005301 0.018681 0.048803
v -0.003388 0.017948 -0.007843
v -0.006816 0.016922 -0.007843
v -0.009624 0.015230 -0.007843
v -0.010296 0.010796 -0.007843
v -0.009637 0.005038 -0.007843
v -0.007867 -0.001026 -0.005461
v -0.003986 -0.001026 -0.010631
v -0.005746 0.018681 0.072393
v 0.000001 0.018122 0.120594
v -0.005788 0.018650 0.097073
v -0.005565 0.018222 0.113015
v -0.005124 0.016665 0.132001
v -0.010995 0.016665 0.129850
v -0.015301 0.016665 0.124439
v -0.010995 -0.001026 0.129850
v -0.005124 -0.001026 0.132001
v -0.005124 0.011675 0.132001
v -0.005124 0.005000 0.132001
v -0.010995 0.005000 0.129850
v -0.010995 0.011675 0.129850
v -0.015301 0.011675 0.124439
v -0.015301 0.005000 0.124439
v -0.015301 -0.001026 0.124439
v -0.006827 -0.001026 0.025231
v -0.007887 -0.001026 0.048803
v -0.008076 -0.001026 0.072393
v -0.008241 -0.001026 0.097073
v -0.008139 -0.001026 0.115417
v -0.012290 0.010866 0.006031
v -0.011968 0.005034 0.006031
v -0.010855 -0.001026 0.006031
v -0.003853 0.018479 0.006031
v -0.007795 0.017733 0.006031
v -0.011962 0.016376 0.006031
v -0.005570 -0.001026 0.006031
v -0.007154 -0.001026 0.125049
v -0.010735 0.017360 0.121268
v -0.005300 0.017388 0.126636
v -0.008586 0.017328 0.124899
v -0.005437 0.017995 0.120687
v 0.000001 -0.061344 0.136401
vt 0.146269 0.102901
vt 0.146269 0.201185
vt 0.065301 0.201185
vt 0.065301 0.102901
vt 0.042652 0.201185
vt 0.042652 0.102901
vt 0.022395 0.201185
vt 0.022395 0.102901
vt 0.004888 0.201185
vt 0.004888 0.102901
vt 0.994681 0.102901
vt 0.994681 0.201185
vt 0.977173 0.201185
vt 0.977173 0.102901
vt 0.956916 0.201185
vt 0.956916 0.102901
vt 0.934267 0.201185
vt 0.934267 0.102901
vt 0.853299 0.102901
vt 0.853299 0.201185
vt 0.771280 0.201185
vt 0.771280 0.102901
vt 0.681269 0.102901
vt 0.681269 0.201185
vt 0.590170 0.201185
vt 0.590170 0.102901
vt 0.555219 0.201185
vt 0.555219 0.102901
vt 0.525254 0.201185
vt 0.525254 0.102901
vt 0.499784 0.201185
vt 0.499784 0.102901
vt 0.474314 0.201185
vt 0.474314 0.102901
vt 0.444350 0.201185
vt 0.444350 0.102901
vt 0.409398 0.201185
vt 0.409398 0.102901
vt 0.318299 0.102901
vt 0.318299 0.201185
vt 0.228289 0.201185
vt 0.228289 0.102901
vt 0.055645 0.528576
vt 0.055654 0.587117
vt 0.021732 0.560254
vt 0.010833 0.528574
vt 0.490999 0.528574
vt 0.515374 0.528574
vt 0.507774 0.550626
vt 0.490990 0.569304
vt 0.490990 0.487843
vt 0.507774 0.506522
vt 0.104417 0.528574
vt 0.104421 0.604700
vt 0.201007 0.528574
vt 0.295947 0.528574
vt 0.295947 0.603688
vt 0.201008 0.607649
vt 0.201008 0.449498
vt 0.295947 0.453459
vt 0.382010 0.528574
vt 0.468245 0.528574
vt 0.468239 0.577939
vt 0.382009 0.591293
vt 0.382009 0.465854
vt 0.468239 0.479208
vt 0.104421 0.452447
vt 0.228289 0.004878
vt 0.146269 0.004878
vt 0.934267 0.004879
vt 0.853299 0.004879
vt 0.771280 0.004878
vt 0.681269 0.004878
vt 0.409398 0.004878
vt 0.318299 0.004878
vt 0.444350 0.004878
vt 0.474314 0.004878
vt 0.499784 0.004878
vt 0.525254 0.004878
vt 0.555219 0.004878
vt 0.590170 0.004878
vt 0.956916 0.004879
vt 0.977173 0.004879
vt 0.994681 0.004879
vt 0.022395 0.004878
vt 0.004888 0.004878
vt 0.042652 0.004878
vt 0.065301 0.004878
vt 0.587865 0.341186
vt 0.587577 0.353237
vt 0.563845 0.351239
vt 0.563731 0.341186
vt 0.586675 0.365277
vt 0.564525 0.363061
vt 0.563200 0.469237
vt 0.560803 0.481109
vt 0.547897 0.476083
vt 0.548447 0.468580
vt 0.554060 0.493448
vt 0.546184 0.484839
vt 0.585036 0.377263
vt 0.561411 0.374461
vt 0.582777 0.389214
vt 0.559174 0.384230
vt 0.579883 0.401134
vt 0.557160 0.394000
vt 0.576251 0.413033
vt 0.555222 0.405531
vt 0.541171 0.499069
vt 0.537311 0.485767
vt 0.529133 0.500401
vt 0.529789 0.485649
vt 0.517261 0.498005
vt 0.522286 0.485098
vt 0.504922 0.491262
vt 0.513530 0.483386
vt 0.571669 0.424954
vt 0.549312 0.415577
vt 0.566096 0.437017
vt 0.544270 0.424156
vt 0.499301 0.478373
vt 0.512602 0.474513
vt 0.497968 0.466335
vt 0.512720 0.466991
vt 0.522984 0.467447
vt 0.522682 0.475015
vt 0.530584 0.467785
vt 0.530246 0.475385
vt 0.538183 0.468124
vt 0.537813 0.475688
vt 0.776836 0.415922
vt 0.776074 0.400500
vt 0.822465 0.395194
vt 0.824089 0.409054
vt 0.775307 0.355824
vt 0.775316 0.341186
vt 0.820372 0.341186
vt 0.820390 0.354523
vt 0.778015 0.431766
vt 0.826415 0.423154
vt 0.782031 0.465093
vt 0.779716 0.448144
vt 0.829659 0.437592
vt 0.834154 0.452564
vt 0.775394 0.370537
vt 0.820716 0.367963
vt 0.775625 0.385401
vt 0.821381 0.381510
vt 0.663278 0.385270
vt 0.664446 0.370464
vt 0.716375 0.371575
vt 0.715893 0.386968
vt 0.661707 0.400291
vt 0.715305 0.402607
vt 0.654947 0.447728
vt 0.657509 0.431391
vt 0.714100 0.434996
vt 0.713643 0.451941
vt 0.665178 0.355793
vt 0.716689 0.356341
vt 0.652110 0.464794
vt 0.713390 0.469474
vt 0.659772 0.415626
vt 0.714680 0.418584
vt 0.665453 0.341186
vt 0.716797 0.341186
vt 0.609240 0.407762
vt 0.612041 0.394249
vt 0.616778 0.354386
vt 0.617120 0.341186
vt 0.605811 0.421507
vt 0.596906 0.450127
vt 0.601711 0.435593
vt 0.615817 0.367609
vt 0.614235 0.380886
vt 0.843191 0.341186
vt 0.843454 0.354059
vt 0.843913 0.366917
vt 0.844665 0.379744
vt 0.845819 0.392519
vt 0.847508 0.405222
vt 0.849895 0.417819
vt 0.853182 0.430248
vt 0.857623 0.442420
vt 0.956908 0.352285
vt 0.956952 0.341186
vt 0.994498 0.341186
vt 0.994112 0.352311
vt 0.956494 0.363303
vt 0.993991 0.362594
vt 0.955753 0.374148
vt 0.992853 0.373631
vt 0.954852 0.384760
vt 0.991015 0.386031
vt 0.953965 0.395113
vt 0.989107 0.399245
vt 0.953029 0.405171
vt 0.987253 0.410161
vt 0.952044 0.414869
vt 0.985175 0.421016
vt 0.950972 0.424125
vt 0.982779 0.431804
vt 0.140460 0.310537
vt 0.140781 0.327036
vt 0.099414 0.327036
vt 0.098702 0.313700
vt 0.214916 0.308888
vt 0.215021 0.327036
vt 0.290470 0.309840
vt 0.290488 0.327036
vt 0.366936 0.311999
vt 0.366930 0.327036
vt 0.429057 0.314510
vt 0.429053 0.327036
vt 0.139367 0.293706
vt 0.094777 0.299926
vt 0.214557 0.290735
vt 0.290400 0.292134
vt 0.366965 0.296891
vt 0.429052 0.301544
vt 0.137403 0.275928
vt 0.088400 0.286741
vt 0.213930 0.271701
vt 0.290280 0.273485
vt 0.367023 0.279755
vt 0.882142 0.420939
vt 0.884939 0.430925
vt 0.917097 0.414559
vt 0.917902 0.423717
vt 0.879930 0.410396
vt 0.916516 0.404949
vt 0.878263 0.399418
vt 0.916156 0.394930
vt 0.877065 0.388117
vt 0.915979 0.384575
vt 0.876241 0.376581
vt 0.915931 0.373949
vt 0.875699 0.364877
vt 0.915944 0.363137
vt 0.875357 0.353063
vt 0.915960 0.352196
vt 0.875163 0.341186
vt 0.915939 0.341186
vt 0.510227 0.284925
vt 0.503748 0.295777
vt 0.474602 0.293125
vt 0.477391 0.278593
vt 0.517947 0.273894
vt 0.481774 0.259770
vt 0.524618 0.265169
vt 0.479481 0.237003
vt 0.531555 0.256646
vt 0.501425 0.235915
vt 0.538514 0.248141
vt 0.512251 0.227183
vt 0.429057 0.287385
vt 0.131297 0.239738
vt 0.073971 0.256653
vt 0.063976 0.237398
vt 0.127546 0.219235
vt 0.213061 0.233430
vt 0.212510 0.212888
vt 0.292255 0.234940
vt 0.293299 0.214462
vt 0.371337 0.241504
vt 0.373648 0.221107
vt 0.435480 0.250604
vt 0.439488 0.230231
vt 0.134940 0.260090
vt 0.083050 0.274295
vt 0.213594 0.254313
vt 0.498470 0.316118
vt 0.497714 0.327036
vt 0.474502 0.327036
vt 0.474493 0.315748
vt 0.499837 0.306134
vt 0.474467 0.303917
vt 0.291220 0.255439
vt 0.369098 0.261347
vt 0.432043 0.269677
vt 0.081335 0.315289
vt 0.082042 0.327036
vt 0.067508 0.327036
vt 0.068926 0.316358
vt 0.078753 0.304095
vt 0.070691 0.296435
vt 0.056973 0.327036
vt 0.045801 0.327036
vt 0.047567 0.314588
vt 0.058230 0.317117
vt 0.036270 0.291653
vt 0.052703 0.300674
vt 0.029041 0.310313
vt 0.017280 0.281109
vt 0.006803 0.305071
vt 0.924891 0.530699
vt 0.924891 0.505032
vt 0.955261 0.508138
vt 0.955038 0.530699
vt 0.027118 0.327036
vt 0.004901 0.327036
vt 0.061805 0.305858
vt 0.063158 0.287567
vt 0.049451 0.273691
vt 0.033881 0.258414
vt 0.580000 0.530699
vt 0.580000 0.513132
vt 0.640536 0.509169
vt 0.640536 0.530699
vt 0.580000 0.496469
vt 0.640536 0.485485
vt 0.714860 0.505828
vt 0.714860 0.530699
vt 0.789238 0.505232
vt 0.789237 0.530699
vt 0.867053 0.504713
vt 0.867053 0.530699
vt 0.924891 0.476752
vt 0.867053 0.475571
vt 0.789237 0.476353
vt 0.714860 0.479353
vt 0.977180 0.514540
vt 0.953335 0.482450
vt 0.970397 0.496028
vt 0.527464 0.518128
vt 0.543768 0.505890
vt 0.524547 0.530699
vt 0.980016 0.530699
vt 0.563845 0.331132
vt 0.587577 0.329134
vt 0.564525 0.319310
vt 0.586675 0.317094
vt 0.530922 0.460186
vt 0.531379 0.449922
vt 0.538882 0.450473
vt 0.538486 0.460557
vt 0.500365 0.454462
vt 0.513271 0.459488
vt 0.556246 0.444310
vt 0.547637 0.452185
vt 0.543907 0.437566
vt 0.514983 0.450732
vt 0.523856 0.449804
vt 0.523355 0.459883
vt 0.548565 0.461058
vt 0.561867 0.457198
vt 0.585036 0.305108
vt 0.561412 0.307910
vt 0.559174 0.298141
vt 0.582777 0.293157
vt 0.579883 0.281237
vt 0.557160 0.288371
vt 0.555222 0.276840
vt 0.576251 0.269338
vt 0.532035 0.435170
vt 0.519997 0.436503
vt 0.507108 0.442124
vt 0.549312 0.266794
vt 0.571669 0.257417
vt 0.544270 0.258216
vt 0.566096 0.245354
vt 0.715893 0.295403
vt 0.775625 0.296970
vt 0.775394 0.311834
vt 0.716375 0.310796
vt 0.612041 0.288122
vt 0.661707 0.282080
vt 0.663278 0.297102
vt 0.614235 0.301485
vt 0.778015 0.250605
vt 0.826415 0.259217
vt 0.824089 0.273317
vt 0.776836 0.266449
vt 0.779716 0.234227
vt 0.829659 0.244779
vt 0.605811 0.260864
vt 0.657509 0.250980
vt 0.659772 0.266745
vt 0.609240 0.274609
vt 0.664446 0.311907
vt 0.615817 0.314762
vt 0.713390 0.212897
vt 0.782031 0.217278
vt 0.713643 0.230430
vt 0.714100 0.247375
vt 0.716689 0.326030
vt 0.665178 0.326578
vt 0.714680 0.263787
vt 0.715305 0.279764
vt 0.596906 0.232244
vt 0.652110 0.217577
vt 0.654947 0.234643
vt 0.601711 0.246778
vt 0.775307 0.326547
vt 0.776074 0.281871
vt 0.616778 0.327985
vt 0.822465 0.287178
vt 0.834154 0.229807
vt 0.820390 0.327848
vt 0.821381 0.300861
vt 0.820716 0.314408
vt 0.843454 0.328312
vt 0.843913 0.315454
vt 0.844665 0.302627
vt 0.845819 0.289852
vt 0.847508 0.277149
vt 0.849895 0.264552
vt 0.853182 0.252123
vt 0.857623 0.239951
vt 0.956908 0.330086
vt 0.994112 0.330060
vt 0.950972 0.258246
vt 0.982779 0.250567
vt 0.985175 0.261355
vt 0.952044 0.267502
vt 0.538514 0.405932
vt 0.512251 0.426890
vt 0.501425 0.418158
vt 0.531555 0.397427
vt 0.140460 0.343536
vt 0.098702 0.340373
vt 0.917902 0.258654
vt 0.917097 0.267812
vt 0.955261 0.553259
vt 0.924891 0.556365
vt 0.879930 0.271975
vt 0.878263 0.282953
vt 0.139367 0.360367
vt 0.094777 0.354147
vt 0.435480 0.403469
vt 0.439488 0.423842
vt 0.373648 0.432966
vt 0.371337 0.412569
vt 0.884939 0.251446
vt 0.882142 0.261432
vt 0.078753 0.349978
vt 0.071911 0.344618
vt 0.068926 0.337715
vt 0.081335 0.338784
vt 0.916516 0.277422
vt 0.291220 0.398634
vt 0.292255 0.419133
vt 0.213061 0.420643
vt 0.213594 0.399760
vt 0.137403 0.378145
vt 0.134940 0.393983
vt 0.083050 0.379778
vt 0.088400 0.367332
vt 0.036270 0.362420
vt 0.029041 0.343760
vt 0.047567 0.339485
vt 0.052703 0.353399
vt 0.867053 0.556685
vt 0.789238 0.556165
vt 0.290280 0.380588
vt 0.213930 0.382372
vt 0.063158 0.366506
vt 0.070691 0.357638
vt 0.477391 0.375480
vt 0.481774 0.394303
vt 0.432043 0.384396
vt 0.131297 0.414335
vt 0.290400 0.361939
vt 0.214557 0.363338
vt 0.214916 0.345185
vt 0.290470 0.344233
vt 0.369098 0.392726
vt 0.503748 0.358296
vt 0.474602 0.360948
vt 0.474467 0.350156
vt 0.499837 0.347938
vt 0.367023 0.374318
vt 0.366965 0.357182
vt 0.915979 0.297796
vt 0.954852 0.297611
vt 0.955753 0.308223
vt 0.915931 0.308422
vt 0.127546 0.434838
vt 0.063976 0.416675
vt 0.073971 0.397420
vt 0.877065 0.294254
vt 0.876241 0.305790
vt 0.924891 0.584645
vt 0.867053 0.585826
vt 0.429057 0.366688
vt 0.429052 0.352529
vt 0.916156 0.287441
vt 0.366936 0.342074
vt 0.429057 0.339563
vt 0.061805 0.348215
vt 0.058230 0.336956
vt 0.875699 0.317494
vt 0.875357 0.329309
vt 0.953029 0.277200
vt 0.953965 0.287258
vt 0.049451 0.380382
vt 0.992853 0.308740
vt 0.993991 0.319777
vt 0.956494 0.319068
vt 0.498470 0.337955
vt 0.474493 0.338325
vt 0.006803 0.349002
vt 0.714860 0.555569
vt 0.991015 0.296340
vt 0.293298 0.439611
vt 0.212510 0.441185
vt 0.915944 0.319235
vt 0.033881 0.395659
vt 0.017280 0.372964
vt 0.789237 0.585044
vt 0.915960 0.330175
vt 0.479481 0.417070
vt 0.580000 0.548265
vt 0.640536 0.552228
vt 0.640536 0.575913
vt 0.580000 0.564928
vt 0.517947 0.380179
vt 0.510227 0.369148
vt 0.987254 0.272210
vt 0.527464 0.543270
vt 0.977180 0.546857
vt 0.970397 0.565369
vt 0.953335 0.578947
vt 0.524618 0.388904
vt 0.989107 0.283126
vt 0.714860 0.582045
vt 0.543768 0.555508
vt 0.071911 0.309455
vt 0.055654 0.470030
vt 0.021732 0.496893
vn -0.9839 0.1473 -0.1013
vn -0.9919 0.0892 -0.0908
vn -0.9752 0.1043 -0.1952
vn -0.9678 0.1429 -0.2074
vn -0.8953 0.0993 -0.4343
vn -0.8681 0.1455 -0.4746
vn -0.5998 0.0846 -0.7957
vn -0.5615 0.1432 -0.8150
vn 0.0000 0.0797 -0.9968
vn 0.0000 0.1446 -0.9895
vn 0.5998 0.0846 -0.7957
vn 0.5615 0.1432 -0.8150
vn 0.8953 0.0993 -0.4343
vn 0.8681 0.1455 -0.4746
vn 0.9752 0.1043 -0.1952
vn 0.9678 0.1429 -0.2074
vn 0.9839 0.1473 -0.1013
vn 0.9919 0.0892 -0.0908
vn 0.9961 0.0804 -0.0367
vn 0.9848 0.1661 -0.0507
vn 0.9837 0.1795 -0.0068
vn 0.9966 0.0827 -0.0057
vn 0.9796 0.1044 0.1719
vn 0.9663 0.1947 0.1684
vn 0.8386 0.1602 0.5206
vn 0.8418 0.2449 0.4810
vn 0.5626 0.2311 0.7937
vn 0.5768 0.3204 0.7514
vn -0.0000 0.2861 0.9582
vn -0.0000 0.3808 0.9246
vn -0.5626 0.2311 0.7937
vn -0.5768 0.3204 0.7514
vn -0.8386 0.1602 0.5206
vn -0.8418 0.2449 0.4810
vn -0.9796 0.1044 0.1719
vn -0.9663 0.1947 0.1684
vn -0.9837 0.1795 -0.0068
vn -0.9966 0.0827 -0.0057
vn -0.9961 0.0804 -0.0367
vn -0.9848 0.1661 -0.0507
vn -0.0000 -0.9799 0.1996
vn -0.0044 -0.9851 0.1719
vn -0.0138 -0.9612 0.2755
vn 0.0000 -0.9613 0.2755
vn 0.0000 -0.9846 -0.1751
vn -0.0000 -0.9653 -0.2611
vn -0.0145 -0.9652 -0.2611
vn -0.0040 -0.9907 -0.1358
vn 0.0040 -0.9907 -0.1358
vn 0.0145 -0.9652 -0.2611
vn 0.0000 -0.9978 0.0661
vn 0.0000 -0.9983 0.0585
vn 0.0000 -1.0000 0.0047
vn 0.0000 -1.0000 0.0000
vn -0.0000 -0.9995 -0.0312
vn 0.0000 -0.9972 -0.0751
vn 0.0000 -0.9973 -0.0728
vn 0.0000 -0.9996 -0.0282
vn -0.9659 0.2508 -0.0637
vn -0.9728 0.2040 -0.1101
vn 0.9574 0.1806 -0.2253
vn 0.9728 0.2040 -0.1101
vn 0.9659 0.2508 -0.0637
vn 0.9620 0.2728 -0.0066
vn -0.9480 0.2783 0.1545
vn -0.9620 0.2728 -0.0066
vn -0.8400 0.3194 0.4385
vn -0.5791 0.4000 0.7104
vn 0.0000 0.4663 0.8846
vn 0.5791 0.4000 0.7104
vn 0.8400 0.3194 0.4385
vn 0.9480 0.2783 0.1545
vn 0.8401 0.1900 -0.5081
vn 0.5379 0.1977 -0.8195
vn 0.0000 0.2049 -0.9788
vn -0.5379 0.1977 -0.8195
vn -0.8401 0.1900 -0.5081
vn -0.9574 0.1806 -0.2253
vn -0.0000 0.9919 0.1273
vn 0.3709 0.9234 0.0991
vn 0.3399 0.9399 -0.0320
vn -0.0000 0.9998 -0.0219
vn 0.6851 0.7281 0.0229
vn 0.6589 0.7467 -0.0912
vn 0.3268 0.8963 -0.2998
vn 0.0000 0.9480 -0.3183
vn 0.6085 0.7551 -0.2441
vn 0.8965 0.4344 -0.0871
vn 0.8607 0.4569 -0.2245
vn 0.9722 0.0863 -0.2175
vn 0.9206 0.1458 -0.3624
vn 0.8990 -0.2610 -0.3517
vn 0.8616 -0.1751 -0.4764
vn 0.6885 -0.5560 -0.4658
vn 0.6601 -0.4789 -0.5787
vn 0.7186 0.5330 -0.4466
vn 0.7596 0.2438 -0.6030
vn 0.7186 -0.0729 -0.6916
vn 0.6085 -0.3733 -0.7003
vn 0.3729 -0.7548 -0.5397
vn 0.3403 -0.6601 -0.6697
vn -0.0000 -0.8253 -0.5646
vn -0.0000 -0.7104 -0.7038
vn 0.3268 -0.4361 -0.8384
vn -0.0000 -0.4605 -0.8877
vn -0.0000 -0.0408 -0.9992
vn 0.3834 -0.0405 -0.9227
vn 0.0000 0.3748 -0.9271
vn 0.4123 0.3415 -0.8446
vn 0.0000 0.7237 -0.6901
vn 0.3834 0.6704 -0.6353
vn 0.9213 -0.3816 -0.0741
vn 0.9981 -0.0232 0.0574
vn 0.9721 -0.0862 0.2180
vn 0.8970 -0.4335 0.0857
vn 0.3825 0.8441 0.3757
vn 0.0000 0.9157 0.4020
vn 0.0000 0.8250 0.5651
vn 0.3730 0.7555 0.5386
vn 0.7046 -0.6850 -0.1854
vn 0.6858 -0.7273 -0.0261
vn -0.0000 -0.9583 -0.2858
vn 0.3811 -0.8873 -0.2597
vn 0.3709 -0.9232 -0.1007
vn -0.0000 -0.9919 -0.1269
vn 0.7066 0.6404 0.3010
vn 0.6888 0.5576 0.4632
vn 0.9227 0.3358 0.1892
vn 0.8992 0.2619 0.3506
vn 0.9222 0.3767 0.0872
vn 0.7054 0.6803 0.1989
vn 0.7071 0.6607 0.2521
vn 0.9239 0.3561 0.1402
vn 0.9988 0.0180 -0.0448
vn 1.0000 -0.0033 0.0081
vn 0.3826 -0.8492 -0.3640
vn 0.7068 -0.6456 -0.2891
vn 0.7068 -0.6670 -0.2359
vn 0.3824 -0.8702 -0.3106
vn 0.3816 0.8829 0.2735
vn 0.3826 0.8641 0.3269
vn -0.0000 -0.9207 -0.3903
vn -0.0000 -0.9416 -0.3368
vn 0.9233 -0.3410 -0.1770
vn 0.9237 -0.3625 -0.1240
vn 0.0000 0.9540 0.2997
vn 0.0000 0.9356 0.3531
vn 0.9178 -0.3098 -0.2483
vn 0.9920 0.0470 -0.1168
vn 0.3782 0.9041 0.1990
vn -0.0000 0.9744 0.2249
vn 0.7032 -0.6131 -0.3600
vn 0.0000 -0.8874 -0.4611
vn 0.3808 -0.8160 -0.4348
vn 0.6995 0.7036 0.1251
vn 0.9151 0.4029 0.0143
vn -0.0000 0.7786 0.6275
vn 0.3666 0.7098 0.6014
vn 0.6762 0.5145 0.5273
vn 0.8811 0.2235 0.4168
vn 0.9506 -0.1177 0.2872
vn 0.8754 -0.4567 0.1583
vn 0.6681 -0.7424 0.0497
vn 0.3609 -0.9323 -0.0225
vn -0.0000 -0.9989 -0.0478
vn 0.3543 0.9172 0.1822
vn 0.0000 0.9777 0.2102
vn -0.0000 0.9995 0.0311
vn 0.2746 0.9615 0.0070
vn 0.6883 0.7173 0.1079
vn 0.5756 0.8141 -0.0768
vn 0.9226 0.3857 0.0116
vn 0.8902 0.4276 -0.1569
vn 0.9952 0.0328 -0.0920
vn 0.9817 0.0414 -0.1857
vn 0.9243 -0.3153 -0.2151
vn 0.9270 -0.2764 -0.2537
vn 0.7053 -0.6272 -0.3306
vn 0.7053 -0.6130 -0.3561
vn 0.3819 -0.8311 -0.4042
vn 0.3496 -0.8421 -0.4107
vn -0.0000 -0.9028 -0.4301
vn -0.0000 -0.9085 -0.4179
vn 0.0774 0.9969 0.0147
vn -0.0000 0.9999 0.0157
vn -0.0000 0.9996 0.0289
vn 0.0709 0.9971 0.0291
vn 0.0892 0.9960 0.0001
vn 0.0000 1.0000 0.0021
vn 0.1015 0.9948 -0.0038
vn 0.0000 1.0000 -0.0014
vn 0.1177 0.9930 -0.0094
vn -0.0000 1.0000 -0.0055
vn 0.1455 0.9888 -0.0322
vn -0.0000 0.9997 -0.0258
vn 0.1591 0.9872 0.0100
vn 0.1387 0.9900 0.0254
vn 0.1728 0.9849 -0.0034
vn 0.1823 0.9832 -0.0094
vn 0.2050 0.9786 -0.0204
vn 0.2697 0.9613 -0.0570
vn 0.1954 0.9807 0.0064
vn 0.1551 0.9876 0.0231
vn 0.2144 0.9767 -0.0049
vn 0.2202 0.9754 -0.0124
vn 0.2443 0.9693 -0.0266
vn 0.3749 -0.9143 -0.1531
vn -0.0000 -0.9840 -0.1783
vn 0.3818 -0.8797 -0.2833
vn -0.0000 -0.9511 -0.3090
vn 0.6939 -0.7155 -0.0811
vn 0.7059 -0.6765 -0.2099
vn 0.9086 -0.4168 0.0271
vn 0.9229 -0.3718 -0.1000
vn 0.9859 -0.0626 0.1553
vn 0.9995 -0.0120 0.0298
vn 0.9129 0.2932 0.2840
vn 0.9237 0.3482 0.1597
vn 0.6999 0.5960 0.3935
vn 0.7071 0.6536 0.2698
vn 0.3792 0.7989 0.4669
vn 0.3827 0.8577 0.3434
vn 0.0000 0.8702 0.4927
vn 0.0000 0.9293 0.3693
vn 0.8193 0.5409 -0.1904
vn 0.9823 0.0267 -0.1856
vn 0.9515 -0.2287 -0.2059
vn 0.8777 -0.4103 -0.2474
vn 0.3878 -0.8528 -0.3499
vn -0.0000 -0.9418 -0.3363
vn 0.3283 0.9418 -0.0719
vn 1.0000 -0.0000 0.0052
vn 0.9941 0.0000 0.1089
vn 0.9997 -0.0000 -0.0252
vn 0.9981 -0.0000 -0.0613
vn 0.9938 -0.0294 -0.1073
vn 0.9922 -0.0453 -0.1164
vn 0.9812 -0.1158 -0.1544
vn 0.9679 -0.1798 -0.1754
vn -0.0000 0.9993 -0.0387
vn 0.1935 0.9796 -0.0535
vn 0.4105 0.9046 -0.1145
vn 0.9951 0.0006 -0.0984
vn 0.9908 0.0045 -0.1352
vn 0.9950 0.0146 -0.0985
vn 0.9887 0.0632 -0.1358
vn 0.0637 0.9960 0.0625
vn 0.0000 0.9978 0.0662
vn 0.0000 0.9927 0.1207
vn 0.0464 0.9925 0.1133
vn 0.1149 0.9920 0.0524
vn 0.1175 0.9915 0.0567
vn 0.0000 0.0000 1.0000
vn 0.2595 0.0000 0.9657
vn 0.5850 0.0000 0.8110
vn 0.9069 0.0000 0.4214
vn -0.3399 0.9399 -0.0320
vn -0.3709 0.9234 0.0991
vn -0.6589 0.7467 -0.0912
vn -0.6851 0.7281 0.0229
vn -0.4123 0.3415 -0.8446
vn -0.7596 0.2438 -0.6030
vn -0.7186 0.5330 -0.4466
vn -0.3834 0.6704 -0.6353
vn -0.3403 -0.6601 -0.6697
vn -0.3268 -0.4361 -0.8384
vn -0.6085 0.7551 -0.2441
vn -0.8607 0.4569 -0.2245
vn -0.6085 -0.3733 -0.7003
vn -0.7186 -0.0729 -0.6916
vn -0.3834 -0.0405 -0.9227
vn -0.3268 0.8963 -0.2998
vn -0.8965 0.4344 -0.0871
vn -0.9206 0.1458 -0.3624
vn -0.9722 0.0863 -0.2175
vn -0.8990 -0.2610 -0.3517
vn -0.8616 -0.1751 -0.4764
vn -0.6601 -0.4789 -0.5787
vn -0.6885 -0.5560 -0.4658
vn -0.3729 -0.7548 -0.5397
vn -0.9239 0.3561 0.1402
vn -0.9227 0.3358 0.1892
vn -0.7066 0.6404 0.3010
vn -0.7071 0.6607 0.2521
vn -0.9920 0.0470 -0.1168
vn -0.9988 0.0180 -0.0448
vn -0.9222 0.3767 0.0872
vn -0.9151 0.4029 0.0143
vn -0.7046 -0.6850 -0.1854
vn -0.6858 -0.7273 -0.0261
vn -0.8970 -0.4335 0.0857
vn -0.9213 -0.3816 -0.0741
vn -0.3811 -0.8873 -0.2597
vn -0.3709 -0.9232 -0.1007
vn -0.7032 -0.6131 -0.3600
vn -0.7068 -0.6456 -0.2891
vn -0.9233 -0.3410 -0.1770
vn -0.9178 -0.3098 -0.2483
vn -0.7054 0.6803 0.1989
vn -0.6995 0.7036 0.1251
vn -0.3824 -0.8702 -0.3106
vn -0.7068 -0.6670 -0.2359
vn -0.3826 0.8641 0.3269
vn -0.3816 0.8829 0.2735
vn -0.9237 -0.3625 -0.1240
vn -1.0000 -0.0033 0.0081
vn -0.3826 -0.8492 -0.3640
vn -0.3808 -0.8160 -0.4348
vn -0.3825 0.8441 0.3757
vn -0.9981 -0.0232 0.0574
vn -0.3782 0.9041 0.1990
vn -0.9721 -0.0862 0.2180
vn -0.3730 0.7555 0.5386
vn -0.8992 0.2619 0.3506
vn -0.6888 0.5576 0.4632
vn -0.3666 0.7098 0.6014
vn -0.6762 0.5145 0.5273
vn -0.8811 0.2235 0.4168
vn -0.9506 -0.1177 0.2872
vn -0.8754 -0.4567 0.1583
vn -0.6681 -0.7424 0.0497
vn -0.3609 -0.9323 -0.0225
vn -0.3543 0.9172 0.1822
vn -0.2746 0.9615 0.0070
vn -0.3496 -0.8421 -0.4107
vn -0.3819 -0.8311 -0.4042
vn -0.3878 -0.8528 -0.3499
vn -0.0774 0.9969 0.0147
vn -0.0709 0.9971 0.0291
vn -0.3818 -0.8797 -0.2833
vn -0.6939 -0.7155 -0.0811
vn -0.9086 -0.4168 0.0271
vn -0.1591 0.9872 0.0100
vn -0.1387 0.9900 0.0254
vn -0.9812 -0.1158 -0.1544
vn -0.9679 -0.1798 -0.1754
vn -0.9922 -0.0453 -0.1164
vn -0.9938 -0.0294 -0.1073
vn -0.3749 -0.9143 -0.1531
vn -0.1149 0.9920 0.0524
vn -0.0875 0.9919 0.0924
vn -0.0464 0.9925 0.1133
vn -0.0637 0.9960 0.0625
vn -0.7059 -0.6765 -0.2099
vn -0.9981 -0.0000 -0.0613
vn -0.9997 -0.0000 -0.0252
vn -1.0000 -0.0000 0.0052
vn -0.9941 -0.0000 0.1089
vn -0.5850 0.0000 0.8110
vn -0.2595 0.0000 0.9657
vn -0.9069 0.0000 0.4214
vn -0.9823 0.0267 -0.1856
vn -0.9515 -0.2287 -0.2059
vn -0.9908 0.0045 -0.1352
vn -0.1823 0.9832 -0.0094
vn -0.1728 0.9849 -0.0034
vn -0.0892 0.9960 0.0001
vn -0.1015 0.9948 -0.0038
vn -0.9951 0.0006 -0.0984
vn -0.8902 0.4276 -0.1569
vn -0.8193 0.5409 -0.1904
vn -0.4105 0.9046 -0.1145
vn -0.5756 0.8141 -0.0768
vn -0.2443 0.9693 -0.0266
vn -0.2202 0.9754 -0.0124
vn -0.2050 0.9786 -0.0204
vn -0.9995 -0.0120 0.0298
vn -0.9952 0.0328 -0.0920
vn -0.9226 0.3857 0.0116
vn -0.9237 0.3482 0.1597
vn -0.1551 0.9876 0.0231
vn -0.1175 0.9915 0.0567
vn -0.9859 -0.0626 0.1553
vn -0.9129 0.2932 0.2840
vn -0.3283 0.9418 -0.0719
vn -0.2697 0.9613 -0.0570
vn -0.9229 -0.3718 -0.1000
vn -0.1177 0.9930 -0.0094
vn -0.1455 0.9888 -0.0322
vn -0.6999 0.5960 0.3935
vn -0.3792 0.7989 0.4669
vn -0.7053 -0.6272 -0.3306
vn -0.9243 -0.3153 -0.2151
vn -0.0384 0.9908 0.1297
vn 0.0000 0.9907 0.1359
vn -0.6883 0.7173 0.1079
vn -0.1935 0.9796 -0.0535
vn -0.9950 0.0146 -0.0985
vn -0.9817 0.0414 -0.1857
vn -0.7071 0.6536 0.2698
vn -0.3827 0.8577 0.3434
vn -0.8777 -0.4103 -0.2474
vn -0.9270 -0.2764 -0.2537
vn -0.7053 -0.6130 -0.3561
vn -0.1954 0.9807 0.0064
vn -0.2144 0.9767 -0.0049
vn -0.9887 0.0632 -0.1358
vn 0.0875 0.9919 0.0924
vn 0.0775 0.9918 0.1018
vn 0.0384 0.9908 0.1298
vn -0.0775 0.9918 0.1018
vn 0.0044 -0.9851 0.1719
vn 0.0138 -0.9612 0.2755
s 1
f 66/1/1 43/2/2 4/3/3 48/4/4
f 48/4/4 4/3/3 6/5/5 49/6/6
f 49/6/6 6/5/5 8/7/7 50/8/8
f 50/8/8 8/7/7 10/9/9 51/10/10
f 51/11/10 10/12/9 12/13/11 52/14/12
f 52/14/12 12/13/11 14/15/13 53/16/14
f 53/16/14 14/15/13 16/17/15 54/18/16
f 65/19/17 45/20/18 18/21/19 55/22/20
f 64/23/21 38/24/22 20/25/23 56/26/24
f 56/26/24 20/25/23 22/27/25 57/28/26
f 57/28/26 22/27/25 24/29/27 58/30/28
f 58/30/28 24/29/27 26/31/29 59/32/30
f 59/32/30 26/31/29 28/33/31 60/34/32
f 60/34/32 28/33/31 30/35/33 61/36/34
f 61/36/34 30/35/33 32/37/35 62/38/36
f 63/39/37 40/40/38 2/41/39 47/42/40
f 437/43/41 21/44/42 23/45/43 25/46/44
f 36/47/45 9/48/46 11/49/47 13/50/48
f 5/51/49 7/52/50 9/48/46 36/47/45
f 33/53/51 19/54/52 21/44/42 437/43/41
f 41/55/53 34/56/54 17/57/54 37/58/53
f 39/59/53 1/60/54 34/56/54 41/55/53
f 46/61/55 35/62/56 15/63/57 44/64/58
f 42/65/58 3/66/57 35/62/56 46/61/55
f 35/62/56 36/47/45 13/50/48 15/63/57
f 3/66/57 5/51/49 36/47/45 35/62/56
f 31/67/52 39/59/53 41/55/53 33/53/51
f 33/53/51 41/55/53 37/58/53 19/54/52
f 62/38/36 32/37/35 40/40/38 63/39/37
f 55/22/20 18/21/19 38/24/22 64/23/21
f 1/60/54 42/65/58 46/61/55 34/56/54
f 34/56/54 46/61/55 44/64/58 17/57/54
f 54/18/16 16/17/15 45/20/18 65/19/17
f 47/42/40 2/41/39 43/2/2 66/1/1
f 1/68/59 47/42/40 66/1/1 42/69/60
f 15/70/61 54/18/16 65/19/17 44/71/62
f 17/72/63 55/22/20 64/23/21 37/73/64
f 31/74/65 62/38/36 63/39/37 39/75/66
f 39/75/66 63/39/37 47/42/40 1/68/59
f 29/76/67 61/36/34 62/38/36 31/74/65
f 27/77/68 60/34/32 61/36/34 29/76/67
f 25/78/69 59/32/30 60/34/32 27/77/68
f 23/79/70 58/30/28 59/32/30 25/78/69
f 21/80/71 57/28/26 58/30/28 23/79/70
f 19/81/72 56/26/24 57/28/26 21/80/71
f 37/73/64 64/23/21 56/26/24 19/81/72
f 44/71/62 65/19/17 55/22/20 17/72/63
f 13/82/73 53/16/14 54/18/16 15/70/61
f 11/83/74 52/14/12 53/16/14 13/82/73
f 9/84/75 51/11/10 52/14/12 11/83/74
f 7/85/76 50/8/8 51/10/10 9/86/75
f 5/87/77 49/6/6 50/8/8 7/85/76
f 3/88/78 48/4/4 49/6/6 5/87/77
f 42/69/60 66/1/1 48/4/4 3/88/78
f 67/89/79 68/90/80 70/91/81 69/92/82
f 68/90/80 71/93/83 75/94/84 70/91/81
f 69/95/82 70/96/81 94/97/85 89/98/86
f 70/96/81 75/99/84 99/100/87 94/97/85
f 71/93/83 72/101/88 76/102/89 75/94/84
f 72/101/88 73/103/90 77/104/91 76/102/89
f 73/103/90 74/105/92 78/106/93 77/104/91
f 74/105/92 79/107/94 82/108/95 78/106/93
f 75/99/84 76/109/89 98/110/96 99/100/87
f 76/109/89 77/111/91 97/112/97 98/110/96
f 77/111/91 78/113/93 96/114/98 97/112/97
f 78/113/93 82/115/95 95/116/99 96/114/98
f 79/107/94 80/117/100 83/118/101 82/108/95
f 80/117/100 81/119/102 84/120/103 83/118/101
f 82/115/95 83/121/101 90/122/104 95/116/99
f 83/121/101 84/123/103 85/124/105 90/122/104
f 85/124/105 86/125/106 91/126/107 90/122/104
f 86/125/106 87/127/108 92/128/109 91/126/107
f 87/127/108 88/129/110 93/130/111 92/128/109
f 88/129/110 89/98/86 94/97/85 93/130/111
f 90/122/104 91/126/107 96/114/98 95/116/99
f 91/126/107 92/128/109 97/112/97 96/114/98
f 92/128/109 93/130/111 98/110/96 97/112/97
f 93/130/111 94/97/85 99/100/87 98/110/96
f 140/131/112 136/132/113 104/133/114 105/134/115
f 141/135/116 139/136/117 100/137/118 101/138/119
f 142/139/120 140/131/112 105/134/115 106/140/121
f 143/141/122 137/142/123 107/143/124 108/144/125
f 144/145/126 141/135/116 101/138/119 102/146/127
f 137/142/123 142/139/120 106/140/121 107/143/124
f 136/132/113 138/147/128 103/148/129 104/133/114
f 138/147/128 144/145/126 102/146/127 103/148/129
f 126/149/130 123/150/131 116/151/132 117/152/133
f 124/153/134 126/149/130 117/152/133 111/154/135
f 125/155/136 121/156/137 113/157/138 115/158/139
f 123/150/131 120/159/140 112/160/141 116/151/132
f 122/161/142 125/155/136 115/158/139 114/162/143
f 121/156/137 119/163/144 110/164/145 113/157/138
f 120/159/140 118/165/146 109/166/147 112/160/141
f 119/163/144 124/153/134 111/154/135 110/164/145
f 128/167/148 133/168/149 124/153/134 119/163/144
f 129/169/150 127/170/151 118/165/146 120/159/140
f 130/171/152 128/167/148 119/163/144 121/156/137
f 131/172/153 134/173/154 125/155/136 122/161/142
f 132/174/155 129/169/150 120/159/140 123/150/131
f 134/173/154 130/171/152 121/156/137 125/155/136
f 133/168/149 135/175/156 126/149/130 124/153/134
f 135/175/156 132/174/155 123/150/131 126/149/130
f 72/101/88 71/93/83 132/174/155 135/175/156
f 73/103/90 72/101/88 135/175/156 133/168/149
f 80/117/100 79/107/94 130/171/152 134/173/154
f 71/93/83 68/90/80 129/169/150 132/174/155
f 81/119/102 80/117/100 134/173/154 131/172/153
f 79/107/94 74/105/92 128/167/148 130/171/152
f 68/90/80 67/89/79 127/170/151 129/169/150
f 74/105/92 73/103/90 133/168/149 128/167/148
f 117/152/133 116/151/132 144/145/126 138/147/128
f 111/154/135 117/152/133 138/147/128 136/132/113
f 115/158/139 113/157/138 142/139/120 137/142/123
f 116/151/132 112/160/141 141/135/116 144/145/126
f 114/162/143 115/158/139 137/142/123 143/141/122
f 113/157/138 110/164/145 140/131/112 142/139/120
f 112/160/141 109/166/147 139/136/117 141/135/116
f 110/164/145 111/154/135 136/132/113 140/131/112
f 101/138/119 100/137/118 145/176/157 146/177/158
f 102/146/127 101/138/119 146/177/158 147/178/159
f 103/148/129 102/146/127 147/178/159 148/179/160
f 104/133/114 103/148/129 148/179/160 149/180/161
f 105/134/115 104/133/114 149/180/161 150/181/162
f 106/140/121 105/134/115 150/181/162 151/182/163
f 107/143/124 106/140/121 151/182/163 152/183/164
f 108/144/125 107/143/124 152/183/164 153/184/165
f 163/185/166 168/186/167 154/187/168 155/188/169
f 169/189/170 163/185/166 155/188/169 156/190/171
f 172/191/172 169/189/170 156/190/171 157/192/173
f 175/193/174 172/191/172 157/192/173 158/194/175
f 178/195/176 175/193/174 158/194/175 159/196/177
f 181/197/178 178/195/176 159/196/177 160/198/179
f 184/199/180 181/197/178 160/198/179 161/200/181
f 187/201/182 184/199/180 161/200/181 162/202/183
f 227/203/184 232/204/185 242/205/186 228/206/187
f 226/207/188 231/208/189 232/204/185 227/203/184
f 216/209/190 230/210/191 231/208/189 226/207/188
f 215/211/192 229/212/193 230/210/191 216/209/190
f 264/213/194 263/214/195 229/212/193 215/211/192
f 213/215/196 227/203/184 228/206/187 214/216/197
f 212/217/198 226/207/188 227/203/184 213/215/196
f 211/218/199 216/209/190 226/207/188 212/217/198
f 210/219/200 215/211/192 216/209/190 211/218/199
f 265/220/201 264/213/194 215/211/192 210/219/200
f 208/221/202 213/215/196 214/216/197 209/222/203
f 207/223/204 212/217/198 213/215/196 208/221/202
f 206/224/205 211/218/199 212/217/198 207/223/204
f 205/225/206 210/219/200 211/218/199 206/224/205
f 153/184/165 152/183/164 186/226/207 189/227/208
f 189/227/208 186/226/207 185/228/209 188/229/210
f 188/229/210 185/228/209 184/199/180 187/201/182
f 152/183/164 151/182/163 183/230/211 186/226/207
f 186/226/207 183/230/211 182/231/212 185/228/209
f 185/228/209 182/231/212 181/197/178 184/199/180
f 151/182/163 150/181/162 180/232/213 183/230/211
f 183/230/211 180/232/213 179/233/214 182/231/212
f 182/231/212 179/233/214 178/195/176 181/197/178
f 150/181/162 149/180/161 177/234/215 180/232/213
f 180/232/213 177/234/215 176/235/216 179/233/214
f 179/233/214 176/235/216 175/193/174 178/195/176
f 149/180/161 148/179/160 174/236/217 177/234/215
f 177/234/215 174/236/217 173/237/218 176/235/216
f 176/235/216 173/237/218 172/191/172 175/193/174
f 148/179/160 147/178/159 171/238/219 174/236/217
f 174/236/217 171/238/219 170/239/220 173/237/218
f 173/237/218 170/239/220 169/189/170 172/191/172
f 147/178/159 146/177/158 165/240/221 171/238/219
f 171/238/219 165/240/221 164/241/222 170/239/220
f 170/239/220 164/241/222 163/185/166 169/189/170
f 146/177/158 145/176/157 166/242/223 165/240/221
f 165/240/221 166/242/223 167/243/224 164/241/222
f 164/241/222 167/243/224 168/186/167 163/185/166
f 158/244/175 157/245/173 220/246/225 221/247/226
f 159/248/177 158/244/175 221/247/226 222/249/227
f 160/250/179 159/248/177 222/249/227 223/251/228
f 161/252/181 160/250/179 223/251/228 224/253/229
f 162/254/183 161/252/181 224/253/229 225/255/230
f 266/256/231 265/220/201 210/219/200 205/225/206
f 196/257/232 195/258/233 200/259/233 201/260/232
f 197/261/234 196/257/232 201/260/232 202/262/234
f 198/263/235 197/261/234 202/262/234 203/264/235
f 199/265/236 198/263/235 203/264/235 204/266/237
f 261/267/238 199/265/236 204/266/237 262/268/239
f 191/269/232 190/270/233 195/258/233 196/257/232
f 192/271/234 191/269/232 196/257/232 197/261/234
f 155/272/169 154/273/168 217/274/240 218/275/241
f 156/276/171 155/272/169 218/275/241 219/277/242
f 157/245/173 156/276/171 219/277/242 220/246/225
f 193/278/235 192/271/234 197/261/234 198/263/235
f 194/279/243 193/278/235 198/263/235 199/265/236
f 260/280/244 194/279/243 199/265/236 261/267/238
f 208/221/232 209/222/233 190/270/233 191/269/232
f 207/223/234 208/221/232 191/269/232 192/271/234
f 206/224/235 207/223/234 192/271/234 193/278/235
f 205/225/245 206/224/235 193/278/235 194/279/243
f 266/256/246 205/225/245 194/279/243 260/280/244
f 372/281/247 405/282/248 368/283/249 370/284/250
f 214/216/197 228/206/187 372/281/247 369/285/251
f 209/222/203 214/216/197 369/285/251 236/286/252
f 233/287/253 238/288/253 243/289/254 234/290/254
f 245/291/255 246/292/255 243/289/254 244/293/254
f 239/294/255 245/291/255 244/293/254 240/295/254
f 256/296/54 259/297/54 270/298/54 269/299/54
f 237/300/253 241/301/253 240/295/254 244/293/254
f 246/292/255 235/302/255 234/290/254 243/289/254
f 238/288/253 237/300/253 244/293/254 243/289/254
f 236/286/256 235/302/255 246/292/255 247/303/256
f 247/303/256 246/292/255 245/291/255 248/304/256
f 248/304/256 245/291/255 239/294/255 249/305/256
f 195/258/233 248/304/256 249/305/256 200/259/233
f 190/270/233 247/303/256 248/304/256 195/258/233
f 209/222/233 236/286/256 247/303/256 190/270/233
f 267/306/54 268/307/54 251/308/54 250/309/54
f 268/307/54 262/310/54 204/311/54 251/308/54
f 250/309/54 251/308/54 253/312/54 252/313/54
f 252/313/54 253/312/54 257/314/54 254/315/54
f 254/315/54 257/314/54 258/316/54 255/317/54
f 255/317/54 258/316/54 259/297/54 256/296/54
f 200/318/54 259/297/54 258/316/54 201/319/54
f 201/319/54 258/316/54 257/314/54 202/320/54
f 202/320/54 257/314/54 253/312/54 203/321/54
f 203/321/54 253/312/54 251/308/54 204/311/54
f 240/322/54 270/298/54 249/323/54 239/324/54
f 224/325/54 223/326/54 262/310/54 268/307/54
f 225/327/54 224/325/54 268/307/54 267/306/54
f 220/246/225 266/256/246 260/280/244 221/247/226
f 221/247/226 260/280/244 261/267/238 222/249/227
f 222/249/227 261/267/238 262/268/239 223/251/228
f 220/246/225 219/277/242 265/220/201 266/256/231
f 219/277/242 218/275/241 264/213/194 265/220/201
f 218/275/241 217/274/240 263/214/195 264/213/194
f 249/323/54 270/298/54 259/297/54 200/318/54
f 269/299/54 270/298/54 240/322/54 241/328/54
f 67/89/79 69/92/82 272/329/257 271/330/258
f 271/330/258 272/329/257 277/331/259 273/332/260
f 287/333/261 292/334/262 293/335/263 288/336/264
f 284/337/265 285/338/266 85/124/105 84/123/103
f 277/339/259 294/340/267 293/335/263 278/341/268
f 285/338/266 290/342/269 291/343/270 286/344/271
f 86/125/106 286/344/271 287/333/261 87/127/108
f 288/336/264 293/335/263 294/340/267 289/345/272
f 87/127/108 287/333/261 288/336/264 88/129/110
f 272/346/257 289/345/272 294/340/267 277/339/259
f 274/347/273 278/348/268 279/349/274 275/350/275
f 276/351/276 280/352/277 283/353/278 281/354/279
f 279/355/274 292/334/262 291/343/270 280/356/277
f 286/344/271 291/343/270 292/334/262 287/333/261
f 283/357/278 290/342/269 285/338/266 284/337/265
f 280/356/277 291/343/270 290/342/269 283/357/278
f 278/341/268 293/335/263 292/334/262 279/355/274
f 281/354/279 283/353/278 284/358/265 282/359/280
f 88/129/110 288/336/264 289/345/272 89/98/86
f 275/350/275 279/349/274 280/352/277 276/351/276
f 85/124/105 285/338/266 286/344/271 86/125/106
f 273/332/260 277/331/259 278/348/268 274/347/273
f 282/359/280 284/358/265 84/360/103 81/361/102
f 69/95/82 89/98/86 289/345/272 272/346/257
f 308/362/281 325/363/282 329/364/283 307/365/284
f 320/366/285 313/367/286 315/368/287 322/369/288
f 328/370/289 300/371/290 299/372/291 326/373/292
f 324/374/293 301/375/294 300/371/290 328/370/289
f 318/376/295 311/377/296 309/378/297 316/379/298
f 322/369/288 315/368/287 312/380/299 319/381/300
f 114/382/143 143/383/122 324/374/293 306/384/301
f 306/384/301 324/374/293 328/370/289 305/385/302
f 312/380/299 307/365/284 304/386/303 310/387/304
f 309/378/297 302/388/305 303/389/306 313/367/286
f 131/390/153 122/391/142 314/392/307 321/393/308
f 310/387/304 304/386/303 109/166/147 118/165/146
f 314/392/307 306/384/301 305/385/302 311/377/296
f 304/386/303 327/394/309 139/136/117 109/166/147
f 282/359/280 321/393/308 318/376/295 281/354/279
f 275/350/275 320/366/285 322/369/288 274/347/273
f 303/389/306 323/395/310 325/363/282 308/362/281
f 317/396/311 310/387/304 118/165/146 127/170/151
f 326/373/292 299/372/291 298/397/312 323/395/310
f 302/388/305 326/373/292 323/395/310 303/389/306
f 143/383/122 108/398/125 301/375/294 324/374/293
f 276/351/276 316/379/298 320/366/285 275/350/275
f 313/367/286 303/389/306 308/362/281 315/368/287
f 281/354/279 318/376/295 316/379/298 276/351/276
f 316/379/298 309/378/297 313/367/286 320/366/285
f 273/332/260 319/381/300 317/396/311 271/330/258
f 327/394/309 295/399/313 100/137/118 139/136/117
f 307/365/284 329/364/283 327/394/309 304/386/303
f 321/393/308 314/392/307 311/377/296 318/376/295
f 305/385/302 328/370/289 326/373/292 302/388/305
f 271/330/258 317/396/311 127/170/151 67/89/79
f 323/395/310 298/397/312 297/400/314 325/363/282
f 315/368/287 308/362/281 307/365/284 312/380/299
f 81/361/102 131/390/153 321/393/308 282/359/280
f 274/347/273 322/369/288 319/381/300 273/332/260
f 122/391/142 114/382/143 306/384/301 314/392/307
f 311/377/296 305/385/302 302/388/305 309/378/297
f 319/381/300 312/380/299 310/387/304 317/396/311
f 325/363/282 297/400/314 296/401/315 329/364/283
f 329/364/283 296/401/315 295/399/313 327/394/309
f 295/399/313 330/402/316 145/176/157 100/137/118
f 296/401/315 331/403/317 330/402/316 295/399/313
f 297/400/314 332/404/318 331/403/317 296/401/315
f 298/397/312 333/405/319 332/404/318 297/400/314
f 299/372/291 334/406/320 333/405/319 298/397/312
f 300/371/290 335/407/321 334/406/320 299/372/291
f 301/375/294 336/408/322 335/407/321 300/371/290
f 108/398/125 153/409/165 336/408/322 301/375/294
f 344/410/323 337/411/324 154/187/168 168/186/167
f 187/412/182 162/413/183 343/414/325 362/415/326
f 162/416/183 225/417/230 403/418/327 343/419/325
f 406/420/328 407/421/329 242/205/186 232/204/185
f 188/422/210 187/412/182 362/415/326 363/423/330
f 256/296/54 269/299/54 432/424/54 424/425/54
f 335/407/321 361/426/331 358/427/332 334/406/320
f 393/428/333 394/429/334 407/421/329 406/420/328
f 426/430/335 427/431/336 384/432/337 379/433/338
f 189/434/208 188/422/210 363/423/330 364/435/339
f 433/436/340 435/437/341 434/438/342 436/439/343
f 364/435/339 363/423/330 360/440/344 361/426/331
f 373/441/345 378/442/345 377/443/346 367/444/346
f 388/445/347 366/446/347 365/447/348 389/448/348
f 415/449/349 414/450/350 413/451/350 416/452/349
f 254/315/54 255/317/54 423/453/54 422/454/54
f 386/455/345 373/441/345 367/444/346 387/456/346
f 153/409/165 189/434/208 364/435/339 336/408/322
f 389/448/348 365/447/348 417/457/351 410/458/351
f 400/459/352 401/460/353 426/430/335 425/461/354
f 367/444/346 377/443/346 376/462/347 366/446/347
f 391/463/355 392/464/356 404/465/357 396/466/358
f 374/467/359 379/433/338 378/442/345 373/441/345
f 339/468/360 399/469/361 398/470/362 338/471/363
f 385/472/364 386/455/365 391/463/355 390/473/366
f 387/456/346 367/444/346 366/446/347 388/445/347
f 354/474/367 353/475/368 350/476/369 351/477/370
f 392/464/356 393/428/333 406/420/328 404/465/357
f 376/462/347 381/478/347 380/479/348 375/480/348
f 389/448/371 410/458/372 433/436/340 394/429/334
f 355/481/373 354/474/367 351/477/370 352/482/374
f 380/483/54 381/484/54 423/453/54 424/425/54
f 399/469/361 430/485/375 429/486/376 398/470/362
f 361/426/331 360/440/344 357/487/377 358/427/332
f 429/486/376 390/473/366 395/488/378 428/489/379
f 410/458/351 417/457/351 416/452/349 409/490/349
f 396/466/358 404/465/357 231/208/189 230/210/191
f 233/287/253 408/491/350 413/451/350 238/288/253
f 331/403/317 349/492/380 346/493/381 330/402/316
f 360/440/344 359/494/382 356/495/383 357/487/377
f 333/405/319 355/481/373 352/482/374 332/404/318
f 417/457/351 418/496/351 415/449/349 416/452/349
f 434/438/342 408/491/384 233/287/385 368/283/249
f 350/476/369 339/497/360 338/498/363 347/499/386
f 337/500/324 397/501/387 217/274/240 154/273/168
f 385/472/388 374/467/359 373/441/345 386/455/345
f 237/300/253 414/450/350 412/502/350 241/301/253
f 255/317/54 256/296/54 424/425/54 423/453/54
f 252/313/54 254/315/54 422/454/54 421/503/54
f 430/485/375 385/472/364 390/473/366 429/486/376
f 353/475/368 340/504/389 339/497/360 350/476/369
f 378/442/345 383/505/345 382/506/346 377/443/346
f 352/482/374 351/477/370 348/507/390 349/492/380
f 394/429/334 433/436/340 436/439/343 407/421/329
f 416/452/349 413/451/350 408/491/350 409/490/349
f 418/496/351 419/508/351 411/509/349 415/449/349
f 428/489/379 395/488/378 229/212/193 263/214/195
f 381/484/54 382/510/54 422/454/54 423/453/54
f 330/402/316 346/493/381 166/242/223 145/176/157
f 338/471/363 398/470/362 397/501/387 337/500/324
f 346/493/381 345/511/391 167/243/224 166/242/223
f 401/460/353 402/512/392 427/431/336 426/430/335
f 357/487/377 356/495/383 353/475/368 354/474/367
f 431/513/54 420/514/54 384/515/54 427/516/54
f 349/492/380 348/507/390 345/511/391 346/493/381
f 341/517/393 401/460/353 400/459/352 340/518/389
f 377/443/346 382/506/346 381/478/347 376/462/347
f 404/465/357 406/420/328 232/204/185 231/208/189
f 395/488/378 396/466/358 230/210/191 229/212/193
f 362/415/326 343/414/325 342/519/394 359/494/382
f 425/461/354 426/430/335 379/433/338 374/467/359
f 388/445/395 389/448/371 394/429/334 393/428/333
f 340/518/389 400/459/352 399/469/361 339/468/360
f 351/477/370 350/476/369 347/499/386 348/507/390
f 334/406/320 358/427/332 355/481/373 333/405/319
f 436/439/343 434/438/342 368/283/249 405/282/248
f 267/306/54 250/309/54 420/514/54 431/513/54
f 332/404/318 352/482/374 349/492/380 331/403/317
f 387/456/396 388/445/395 393/428/333 392/464/356
f 238/288/253 413/451/350 414/450/350 237/300/253
f 379/433/338 384/432/337 383/505/345 378/442/345
f 375/480/348 380/479/348 419/508/351 418/496/351
f 397/501/387 428/489/379 263/214/195 217/274/240
f 336/408/322 364/435/339 361/426/331 335/407/321
f 225/327/54 267/306/54 431/513/54 403/520/54
f 358/427/332 357/487/377 354/474/367 355/481/373
f 390/473/366 391/463/355 396/466/358 395/488/378
f 412/521/54 411/522/54 419/523/54 432/424/54
f 363/423/330 362/415/326 359/494/382 360/440/344
f 250/309/54 252/313/54 421/503/54 420/514/54
f 430/485/397 425/461/354 374/467/359 385/472/388
f 342/524/394 402/512/392 401/460/353 341/517/393
f 356/495/383 341/525/393 340/504/389 353/475/368
f 359/494/382 342/519/394 341/525/393 356/495/383
f 411/509/349 412/502/350 414/450/350 415/449/349
f 366/446/347 376/462/347 375/480/348 365/447/348
f 386/455/365 387/456/396 392/464/356 391/463/355
f 399/469/361 400/459/352 425/461/354 430/485/397
f 347/499/386 338/498/363 337/411/324 344/410/323
f 382/510/54 383/526/54 421/503/54 422/454/54
f 365/447/348 375/480/348 418/496/351 417/457/351
f 348/507/390 347/499/386 344/410/323 345/511/391
f 345/511/391 344/410/323 168/186/167 167/243/224
f 343/419/325 403/418/327 402/512/392 342/524/394
f 403/520/54 431/513/54 427/516/54 402/527/54
f 383/526/54 384/515/54 420/514/54 421/503/54
f 398/470/362 429/486/376 428/489/379 397/501/387
f 369/285/251 371/528/398 235/302/399 236/286/252
f 370/284/250 368/283/249 233/287/385 234/290/400
f 235/302/399 371/528/398 370/284/250 234/290/400
f 369/285/251 372/281/247 370/284/250 371/528/398
f 433/436/340 410/458/372 409/490/401 435/437/341
f 419/523/54 380/483/54 424/425/54 432/424/54
f 269/299/54 241/328/54 412/521/54 432/424/54
f 409/490/401 408/491/384 434/438/342 435/437/341
f 407/421/329 436/439/343 405/282/248 242/205/186
f 228/206/187 242/205/186 405/282/248 372/281/247
f 33/53/51 437/43/41 29/529/402 31/67/52
f 25/46/44 27/530/403 29/529/402 437/43/41
