# Blender v3.1.2 OBJ File: 'wine_bottle.blend'
# www.blender.org
o wine_bottle
v 0.013318 0.007465 -0.032150
v 0.000001 0.007465 -0.034825
v 0.000000 0.013822 -0.036497
v 0.013954 0.013822 -0.033689
v 0.024634 0.007465 -0.024632
v 0.000000 0.184163 -0.036252
v 0.025818 0.013822 -0.025818
v 0.013859 0.184163 -0.033458
v 0.033704 0.013822 -0.013961
v 0.032163 0.007465 -0.013320
v 0.025636 0.184163 -0.025636
v 0.036532 0.013822 0.000000
v 0.034853 0.007465 -0.000000
v 0.032163 0.007465 0.013320
v 0.033463 0.184163 -0.013861
v 0.033704 0.013822 0.013961
v 0.024634 0.007465 0.024632
v 0.036264 0.184162 -0.000000
v 0.025818 0.013822 0.025818
v 0.024930 0.197458 -0.024929
v 0.013954 0.013822 0.033689
v 0.013318 0.007465 0.032150
v 0.025636 0.184163 0.025636
v 0.033463 0.184163 0.013861
v 0.013859 0.184163 0.033458
v 0.024930 0.197458 0.024929
v 0.032544 0.197458 0.013479
v -0.000000 0.013822 0.036497
v 0.000001 0.007465 0.034825
v -0.013313 0.007465 0.032143
v 0.000000 0.184163 0.036252
v -0.013950 0.013822 0.033679
v -0.024620 0.007465 0.024621
v 0.013475 0.197459 0.032529
v -0.025801 0.013822 0.025801
v 0.023589 0.203490 0.023587
v -0.033674 0.013822 0.013948
v -0.032138 0.007465 0.013312
v -0.025636 0.184164 0.025636
v -0.013859 0.184164 0.033458
v -0.033463 0.184164 0.013861
v -0.024913 0.197459 0.024914
v -0.013470 0.197459 0.032519
v 0.000000 0.197459 0.035241
v -0.023576 0.203495 0.023577
v 0.012751 0.203491 0.030780
v -0.012746 0.203493 0.030774
v 0.000001 0.203493 0.033347
v 0.021205 0.209275 0.021200
v 0.011464 0.209278 0.027668
v -0.011458 0.209284 0.027668
v 0.030793 0.203488 0.012752
v 0.000002 0.209281 0.029979
v 0.035276 0.197458 -0.000000
v -0.021197 0.209287 0.021198
v 0.032544 0.197458 -0.013479
v 0.030793 0.203488 -0.012752
v 0.023589 0.203490 -0.023587
v 0.013475 0.197458 -0.032529
v 0.000000 0.197458 -0.035241
v 0.012751 0.203491 -0.030780
v 0.000001 0.203493 -0.033347
v 0.021205 0.209275 -0.021200
v 0.011464 0.209278 -0.027668
v 0.000002 0.209281 -0.029979
v 0.027678 0.209273 -0.011460
v 0.008137 0.219074 -0.019629
v 0.000004 0.219082 -0.021262
v 0.015043 0.219079 -0.015034
v 0.019641 0.219070 -0.008126
v 0.019641 0.219070 0.008126
v -0.008127 0.219077 -0.019629
v 0.021276 0.219076 0.000000
v -0.011458 0.209284 -0.027668
v 0.029995 0.209270 0.000000
v -0.012746 0.203493 -0.030774
v 0.033375 0.203487 -0.000000
v 0.027678 0.209273 0.011460
v 0.015043 0.219079 0.015034
v 0.008137 0.219074 0.019629
v 0.000004 0.219082 0.021262
v -0.008127 0.219077 0.019629
v -0.015033 0.219085 0.015035
v -0.019628 0.219080 0.008131
v -0.027668 0.209289 0.011461
v -0.021263 0.219088 -0.000000
v -0.030771 0.203496 0.012746
v -0.029982 0.209292 -0.000000
v -0.019628 0.219080 -0.008131
v -0.033342 0.203498 -0.000000
v -0.027668 0.209289 -0.011461
v -0.015033 0.219085 -0.015035
v -0.021197 0.209287 -0.021198
v -0.030771 0.203496 -0.012746
v -0.023576 0.203495 -0.023577
v -0.035230 0.197459 -0.000000
v -0.032514 0.197459 -0.013468
v -0.013470 0.197459 -0.032519
v -0.024913 0.197459 -0.024914
v -0.013859 0.184164 -0.033458
v -0.013950 0.013822 -0.033679
v -0.025636 0.184164 -0.025636
v -0.013313 0.007465 -0.032143
v -0.024620 0.007465 -0.024621
v -0.025801 0.013822 -0.025801
v -0.033674 0.013822 -0.013948
v -0.032138 0.007465 -0.013312
v -0.033463 0.184164 -0.013861
v -0.036486 0.013822 -0.000000
v -0.034816 0.007465 -0.000000
v -0.036264 0.184164 -0.000000
v -0.032514 0.197459 0.013468
v 0.006604 0.002108 -0.015930
v 0.012185 0.002149 -0.012177
v 0.000005 0.002269 -0.017144
v 0.015809 0.002326 -0.006542
v 0.017121 0.002321 0.000000
v 0.015810 0.002325 0.006543
v 0.012190 0.002138 0.012182
v 0.006606 0.002101 0.015934
v 0.000005 0.002323 0.017109
v -0.006539 0.002328 0.015799
v -0.012093 0.002324 0.012097
v -0.015893 0.002161 0.006585
v -0.017248 0.002100 0.000000
v -0.015826 0.002273 -0.006557
v -0.012093 0.002324 -0.012097
v -0.006539 0.002328 -0.015799
v 0.004161 0.005395 -0.010030
v 0.007675 0.005421 -0.007667
v 0.000006 0.005496 -0.010795
v 0.009957 0.005532 -0.004119
v 0.010783 0.005529 0.000000
v 0.009957 0.005532 0.004120
v 0.007678 0.005414 0.007671
v 0.004162 0.005391 0.010033
v 0.000006 0.005531 0.010773
v -0.004115 0.005534 0.009948
v -0.007612 0.005531 0.007617
v -0.010004 0.005429 0.004146
v -0.010858 0.005390 0.000000
v -0.009963 0.005499 -0.004129
v -0.007612 0.005531 -0.007617
v -0.004115 0.005534 -0.009948
v 0.000007 0.007285 0.000000
v -0.004270 0.006982 0.000000
v 0.004352 0.007020 0.000000
v 0.007820 0.006365 0.000000
v -0.007713 0.006291 0.000000
v 0.005988 0.226113 -0.014443
v 0.000004 0.226119 -0.015645
v 0.011070 0.226116 -0.011062
v 0.014453 0.226110 -0.005979
v 0.014453 0.226110 0.005979
v -0.005979 0.226115 -0.014443
v 0.015656 0.226114 0.000000
v 0.011070 0.226116 0.011062
v 0.005988 0.226113 0.014443
v 0.000004 0.226119 0.015645
v -0.005979 0.226115 0.014443
v -0.011060 0.226121 0.011063
v -0.014441 0.226117 0.005983
v -0.015644 0.226123 -0.000000
v -0.014441 0.226117 -0.005983
v -0.011060 0.226121 -0.011063
v 0.004995 0.234143 -0.012046
v 0.000005 0.234148 -0.013048
v 0.009234 0.234146 -0.009226
v 0.012055 0.234141 -0.004987
v 0.012055 0.234141 0.004987
v -0.004986 0.234145 -0.012046
v 0.013059 0.234144 0.000000
v 0.009234 0.234146 0.009226
v 0.004995 0.234143 0.012046
v 0.000004 0.234148 0.013048
v -0.004986 0.234145 0.012046
v -0.009223 0.234150 0.009227
v -0.012044 0.234147 0.004990
v -0.013047 0.234151 -0.000000
v -0.012044 0.234147 -0.004990
v -0.009223 0.234150 -0.009227
v 0.004995 0.283535 -0.012046
v 0.000005 0.283540 -0.013048
v 0.009234 0.283538 -0.009226
v 0.012055 0.283533 -0.004987
v 0.012055 0.283533 0.004987
v -0.004986 0.283537 -0.012046
v 0.013059 0.283536 0.000000
v 0.009234 0.283538 0.009226
v 0.004995 0.283535 0.012046
v 0.000004 0.283540 0.013048
v -0.004986 0.283537 0.012046
v -0.009223 0.283542 0.009227
v -0.012044 0.283539 0.004990
v -0.013047 0.283544 -0.000000
v -0.012044 0.283539 -0.004990
v -0.009223 0.283542 -0.009227
v 0.004995 0.294990 -0.012046
v 0.000005 0.294995 -0.013048
v 0.009234 0.294993 -0.009226
v 0.012055 0.294987 -0.004987
v 0.012055 0.294987 0.004987
v -0.004986 0.294992 -0.012046
v 0.013059 0.294991 0.000000
v 0.009234 0.294993 0.009226
v 0.004995 0.294990 0.012046
v 0.000004 0.294995 0.013048
v -0.004986 0.294992 0.012046
v -0.009223 0.294997 0.009227
v -0.012044 0.294994 0.004990
v -0.013047 0.294998 -0.000000
v -0.012044 0.294994 -0.004990
v -0.009223 0.294997 -0.009227
v 0.004995 0.298095 -0.012046
v 0.000005 0.298100 -0.013048
v 0.009234 0.298098 -0.009226
v 0.012055 0.298093 -0.004987
v 0.012055 0.298093 0.004987
v -0.004986 0.298097 -0.012046
v 0.013059 0.298096 0.000000
v 0.009234 0.298098 0.009226
v 0.004995 0.298095 0.012046
v 0.000004 0.298100 0.013048
v -0.004986 0.298097 0.012046
v -0.009223 0.298102 0.009227
v -0.012044 0.298099 0.004990
v -0.013047 0.298104 -0.000000
v -0.012044 0.298099 -0.004990
v -0.009223 0.298102 -0.009227
v 0.004102 0.299681 -0.009889
v 0.000005 0.299685 -0.010712
v 0.007582 0.299683 -0.007574
v 0.009898 0.299679 -0.004094
v 0.009898 0.299679 0.004094
v -0.004092 0.299683 -0.009889
v 0.010722 0.299682 0.000000
v 0.007582 0.299683 0.007574
v 0.004102 0.299681 0.009889
v 0.000005 0.299685 0.010712
v -0.004092 0.299683 0.009889
v -0.007571 0.299686 0.007575
v -0.009887 0.299684 0.004096
v -0.010710 0.299688 -0.000000
v -0.009886 0.299684 -0.004096
v -0.007571 0.299686 -0.007575
v 0.000005 0.299683 0.000000
v 0.010016 0.284529 0.010008
v 0.013076 0.284524 0.005409
v 0.010016 0.284529 -0.010008
v 0.005418 0.284526 -0.013066
v 0.005418 0.284526 0.013066
v -0.013064 0.284530 0.005412
v -0.010005 0.284533 0.010008
v 0.000004 0.284531 0.014154
v 0.000004 0.284531 -0.014154
v -0.005408 0.284528 -0.013067
v -0.005408 0.284528 0.013067
v -0.010005 0.284533 -0.010008
v -0.014153 0.284534 -0.000000
v -0.013064 0.284530 -0.005412
v 0.013076 0.284524 -0.005409
v 0.014165 0.284527 0.000000
v 0.013076 0.293856 0.005409
v 0.005418 0.293858 -0.013066
v -0.010005 0.293865 0.010008
v -0.005408 0.293860 -0.013067
v -0.010005 0.293865 -0.010008
v -0.013064 0.293862 -0.005412
v 0.010016 0.293861 0.010008
v 0.010016 0.293861 -0.010008
v 0.005418 0.293858 0.013066
v -0.013064 0.293862 0.005412
v 0.000004 0.293863 0.014154
v 0.000004 0.293863 -0.014154
v -0.005408 0.293860 0.013067
v -0.014153 0.293867 -0.000000
v 0.013076 0.293856 -0.005409
v 0.014165 0.293859 0.000000
v 0.009413 0.001052 -0.022710
v 0.011876 0.002870 -0.028662
v 0.021943 0.002870 -0.021937
v 0.017368 0.001052 -0.017360
v 0.000004 0.001052 -0.024441
v 0.000003 0.002870 -0.030958
v 0.028570 0.002870 -0.011828
v 0.022535 0.001052 -0.009327
v 0.030949 0.002870 -0.000000
v 0.024405 0.001052 0.000000
v 0.028571 0.002870 0.011828
v 0.022536 0.001052 0.009327
v 0.017375 0.001052 0.017367
v 0.021947 0.002870 0.021941
v 0.011878 0.002870 0.028665
v 0.009415 0.001052 0.022715
v 0.000003 0.002870 0.030929
v 0.000004 0.001052 0.024390
v -0.011825 0.002870 0.028554
v -0.009325 0.001052 0.022522
v -0.021865 0.002870 0.021867
v -0.017242 0.001052 0.017245
v -0.022660 0.001052 0.009387
v -0.028630 0.002870 0.011860
v -0.031038 0.002870 -0.000000
v -0.024592 0.001052 0.000000
v -0.028576 0.002870 -0.011838
v -0.022564 0.001052 -0.009348
v -0.021865 0.002870 -0.021867
v -0.017242 0.001052 -0.017245
v -0.009325 0.001052 -0.022522
v -0.011825 0.002870 -0.028554
vt 0.728350 0.617665
vt 0.748861 0.603669
vt 0.783425 0.636726
vt 0.769128 0.658653
vt 0.933829 0.655937
vt 0.919770 0.635466
vt 0.952684 0.600680
vt 0.974643 0.614944
vt 0.695514 0.524309
vt 0.097976 0.524309
vt 0.097976 0.477441
vt 0.695514 0.477441
vt 0.824688 0.414457
vt 0.819303 0.388848
vt 0.877054 0.388921
vt 0.872491 0.413317
vt 0.695514 0.055583
vt 0.097976 0.055583
vt 0.097976 0.008689
vt 0.695514 0.008689
vt 0.695514 0.618056
vt 0.097976 0.618056
vt 0.097976 0.571180
vt 0.695514 0.571180
vt 0.880917 0.679314
vt 0.875487 0.653698
vt 0.029020 0.336837
vt 0.051203 0.336837
vt 0.051203 0.383705
vt 0.029020 0.383705
vt 0.971079 0.556461
vt 0.995497 0.561013
vt 0.097976 0.711828
vt 0.695514 0.711828
vt 0.695514 0.758722
vt 0.097976 0.758722
vt 0.051203 0.711828
vt 0.051203 0.664938
vt 0.097976 0.664938
vt 0.097976 0.289970
vt 0.051203 0.289970
vt 0.051203 0.243102
vt 0.097976 0.243102
vt 0.995497 0.503189
vt 0.969900 0.508657
vt 0.695514 0.102474
vt 0.097976 0.102473
vt 0.695514 0.149355
vt 0.097976 0.149355
vt 0.097976 0.196231
vt 0.051203 0.196231
vt 0.051203 0.149355
vt 0.051203 0.102473
vt 0.051203 0.618056
vt 0.747611 0.467369
vt 0.725645 0.453150
vt 0.766427 0.412200
vt 0.780476 0.432663
vt 0.827614 0.654991
vt 0.823096 0.679415
vt 0.695514 0.196231
vt 0.695514 0.243102
vt 0.971888 0.450417
vt 0.951462 0.464535
vt 0.051203 0.055583
vt 0.051203 0.008689
vt 0.029020 0.149355
vt 0.029020 0.102473
vt 0.029020 0.664938
vt 0.029020 0.618056
vt 0.916667 0.431680
vt 0.930901 0.409729
vt 0.695514 0.289970
vt 0.695514 0.336837
vt 0.097976 0.336837
vt 0.051203 0.571180
vt 0.051203 0.524309
vt 0.097976 0.383705
vt 0.097976 0.430574
vt 0.051203 0.430574
vt 0.029020 0.289970
vt 0.029020 0.243102
vt 0.029020 0.196231
vt 0.029020 0.055583
vt 0.005530 0.711828
vt 0.029020 0.711828
vt 0.029020 0.758722
vt 0.005530 0.758722
vt 0.005530 0.196231
vt 0.005530 0.149355
vt 0.005530 0.055583
vt 0.005530 0.102473
vt 0.029020 0.008689
vt 0.029020 0.430574
vt 0.029020 0.477441
vt 0.005530 0.477441
vt 0.005530 0.430574
vt 0.051203 0.758722
vt 0.005530 0.336837
vt 0.005530 0.383705
vt 0.029020 0.571180
vt 0.005530 0.664938
vt 0.005530 0.618056
vt 0.005530 0.243102
vt 0.920591 0.237212
vt 0.920591 0.214360
vt 0.961892 0.214360
vt 0.961892 0.237212
vt 0.961892 0.260064
vt 0.920591 0.260064
vt 0.920591 0.328625
vt 0.961892 0.328625
vt 0.961892 0.351487
vt 0.920591 0.351487
vt 0.695514 0.664938
vt 0.920591 0.054393
vt 0.920591 0.031531
vt 0.961892 0.031531
vt 0.961892 0.054393
vt 0.961892 0.282915
vt 0.920591 0.282915
vt 0.005530 0.571180
vt 0.005530 0.524309
vt 0.029020 0.524309
vt 0.772658 0.550519
vt 0.772074 0.519562
vt 0.795731 0.523891
vt 0.796020 0.545566
vt 0.961892 0.008689
vt 0.920591 0.008689
vt 0.005530 0.008689
vt 0.920591 0.305770
vt 0.961892 0.305770
vt 0.920591 0.168657
vt 0.961892 0.168657
vt 0.961892 0.191509
vt 0.920591 0.191509
vt 0.961892 0.100102
vt 0.920591 0.100102
vt 0.920591 0.077248
vt 0.961892 0.077248
vt 0.961892 0.122954
vt 0.961892 0.145806
vt 0.920591 0.145806
vt 0.920591 0.122954
vt 0.005530 0.289970
vt 0.961892 0.374329
vt 0.920591 0.374329
vt 0.051203 0.477441
vt 0.695514 0.430574
vt 0.695514 0.383706
vt 0.705088 0.564804
vt 0.730685 0.559396
vt 0.704991 0.507077
vt 0.729398 0.511573
vt 0.831380 0.634598
vt 0.871150 0.633222
vt 0.934280 0.476413
vt 0.905294 0.449220
vt 0.866591 0.611663
vt 0.835544 0.612767
vt 0.839897 0.589081
vt 0.861618 0.588284
vt 0.833631 0.456349
vt 0.864631 0.456014
vt 0.860187 0.479643
vt 0.838542 0.479807
vt 0.928386 0.517513
vt 0.928793 0.548697
vt 0.905123 0.544257
vt 0.904904 0.522516
vt 0.893315 0.467672
vt 0.915763 0.489044
vt 0.895962 0.502727
vt 0.880305 0.487701
vt 0.783234 0.490588
vt 0.803369 0.503599
vt 0.916643 0.577285
vt 0.895150 0.599617
vt 0.881512 0.579759
vt 0.896607 0.564251
vt 0.806585 0.601179
vt 0.819686 0.581065
vt 0.751135 0.555075
vt 0.766174 0.591858
vt 0.784682 0.579063
vt 0.804560 0.565499
vt 0.804743 0.468004
vt 0.818399 0.487901
vt 0.828964 0.434828
vt 0.792155 0.449678
vt 0.794675 0.619482
vt 0.935129 0.589280
vt 0.950680 0.552652
vt 0.750000 0.515367
vt 0.868640 0.433911
vt 0.764976 0.478600
vt 0.907913 0.618201
vt 0.949757 0.512964
vt 0.856177 0.501630
vt 0.843283 0.501671
vt 0.877809 0.552103
vt 0.882933 0.540229
vt 0.857030 0.566377
vt 0.868907 0.561405
vt 0.831166 0.506450
vt 0.822191 0.515941
vt 0.817687 0.528060
vt 0.817950 0.540918
vt 0.822933 0.552795
vt 0.831928 0.562180
vt 0.868082 0.506494
vt 0.877453 0.515355
vt 0.844104 0.566912
vt 0.882893 0.527174
vt 0.857558 0.544881
vt 0.850156 0.534101
vt 0.836839 0.514706
vt 0.842852 0.523465
vt 0.863581 0.553650
vt 0.892226 0.077248
vt 0.892226 0.054393
vt 0.892226 0.305770
vt 0.892226 0.282915
vt 0.892226 0.351487
vt 0.892226 0.328625
vt 0.892226 0.031531
vt 0.892226 0.008689
vt 0.892226 0.145806
vt 0.892226 0.122954
vt 0.892226 0.214360
vt 0.892226 0.191509
vt 0.892226 0.237212
vt 0.892226 0.260064
vt 0.892226 0.168657
vt 0.892226 0.374329
vt 0.892226 0.100102
vt 0.865640 0.054393
vt 0.865640 0.031531
vt 0.865640 0.008689
vt 0.865640 0.191509
vt 0.865640 0.168657
vt 0.865640 0.260064
vt 0.865640 0.237212
vt 0.865640 0.374329
vt 0.865640 0.351487
vt 0.865640 0.100102
vt 0.865640 0.077248
vt 0.865640 0.328625
vt 0.865640 0.305770
vt 0.865640 0.214360
vt 0.865640 0.282915
vt 0.865640 0.122954
vt 0.865640 0.145806
vt 0.710034 0.305770
vt 0.710034 0.282915
vt 0.710034 0.122954
vt 0.710034 0.100102
vt 0.710034 0.260064
vt 0.710034 0.145806
vt 0.710034 0.214360
vt 0.710034 0.191509
vt 0.710034 0.168657
vt 0.710034 0.054393
vt 0.710034 0.031531
vt 0.710034 0.008689
vt 0.710034 0.237212
vt 0.710034 0.374329
vt 0.710034 0.351487
vt 0.710034 0.077248
vt 0.710034 0.328625
vt 0.045527 0.789793
vt 0.027159 0.789793
vt 0.027159 0.784274
vt 0.045527 0.784274
vt 0.265843 0.789793
vt 0.247481 0.789793
vt 0.247481 0.784274
vt 0.265843 0.784274
vt 0.063888 0.789793
vt 0.063888 0.784274
vt 0.137327 0.789793
vt 0.118968 0.789793
vt 0.118968 0.784274
vt 0.137327 0.784274
vt 0.082250 0.789793
vt 0.082250 0.784274
vt 0.229119 0.789793
vt 0.210761 0.789793
vt 0.210761 0.784274
vt 0.229119 0.784274
vt 0.100609 0.789793
vt 0.100609 0.784274
vt 0.192401 0.789793
vt 0.192401 0.784274
vt 0.155685 0.789793
vt 0.155685 0.784274
vt 0.174043 0.789793
vt 0.174043 0.784274
vt 0.284211 0.789793
vt 0.284211 0.784274
vt 0.302558 0.789793
vt 0.302558 0.784274
vt 0.008811 0.789793
vt 0.008811 0.784274
vt 0.284211 0.773440
vt 0.302558 0.773440
vt 0.155685 0.773440
vt 0.174043 0.773440
vt 0.100609 0.773440
vt 0.118968 0.773440
vt 0.008811 0.773440
vt 0.027159 0.773440
vt 0.229119 0.773440
vt 0.247481 0.773440
vt 0.045527 0.773440
vt 0.265843 0.773440
vt 0.063888 0.773440
vt 0.137327 0.773440
vt 0.082250 0.773440
vt 0.210761 0.773440
vt 0.192401 0.773440
vt 0.402042 0.794083
vt 0.408922 0.810713
vt 0.399220 0.812640
vt 0.393927 0.799503
vt 0.338054 0.858038
vt 0.325330 0.845311
vt 0.333445 0.839892
vt 0.343552 0.849815
vt 0.408922 0.828710
vt 0.399352 0.826804
vt 0.389305 0.858061
vt 0.372675 0.864938
vt 0.370748 0.855235
vt 0.383885 0.849945
vt 0.402030 0.845335
vt 0.393806 0.839837
vt 0.354683 0.774453
vt 0.372690 0.774457
vt 0.370785 0.784029
vt 0.356614 0.784157
vt 0.338061 0.781324
vt 0.343483 0.789442
vt 0.354678 0.864934
vt 0.356584 0.855363
vt 0.325345 0.794045
vt 0.333569 0.799547
vt 0.389316 0.781354
vt 0.383819 0.789578
vt 0.318449 0.810678
vt 0.328020 0.812586
vt 0.318449 0.828678
vt 0.328151 0.826752
vt 0.363685 0.819695
vt 0.247481 0.827529
vt 0.229119 0.827529
vt 0.229119 0.822351
vt 0.247481 0.822351
vt 0.027159 0.827529
vt 0.008811 0.827529
vt 0.008811 0.822351
vt 0.027159 0.822351
vt 0.118968 0.827529
vt 0.100609 0.827529
vt 0.100609 0.822351
vt 0.118968 0.822351
vt 0.174043 0.827529
vt 0.155685 0.827529
vt 0.155685 0.822351
vt 0.174043 0.822351
vt 0.302558 0.827529
vt 0.284211 0.827529
vt 0.284211 0.822351
vt 0.302558 0.822351
vt 0.265843 0.827529
vt 0.265843 0.822351
vt 0.192401 0.827529
vt 0.192401 0.822351
vt 0.137327 0.827529
vt 0.137327 0.822351
vt 0.210761 0.827529
vt 0.210761 0.822351
vt 0.082250 0.827529
vt 0.082250 0.822351
vt 0.063888 0.827529
vt 0.063888 0.822351
vt 0.045527 0.827529
vt 0.045527 0.822351
vn -0.0003 -0.1253 0.9921
vn -0.0009 -0.4490 0.8936
vn 0.3416 -0.4465 0.8270
vn 0.3793 -0.1253 0.9167
vn 0.9921 -0.1256 0.0000
vn 0.8924 -0.4512 -0.0000
vn 0.8251 -0.4498 -0.3418
vn 0.9164 -0.1255 -0.3802
vn -0.3798 -0.1252 0.9165
vn -0.3825 0.0386 0.9232
vn -0.7066 0.0389 0.7066
vn -0.7016 -0.1252 0.7015
vn -0.8258 -0.4480 -0.3426
vn -0.9166 -0.1252 -0.3797
vn -0.7016 -0.1252 -0.7015
vn -0.6315 -0.4500 -0.6315
vn 0.9230 0.0379 -0.3829
vn 0.9993 0.0378 0.0000
vn 0.3821 0.0383 0.9233
vn -0.0002 0.0385 0.9993
vn 0.9164 -0.1255 0.3802
vn 0.8252 -0.4497 0.3418
vn -0.8477 0.3975 -0.3512
vn -0.9077 0.1864 -0.3760
vn -0.9824 0.1865 -0.0000
vn -0.9176 0.3976 0.0000
vn 0.6326 -0.4471 -0.6324
vn 0.7012 -0.1255 -0.7018
vn 0.9230 0.0379 0.3829
vn 0.9076 0.1860 0.3765
vn 0.6945 0.1862 0.6950
vn 0.7063 0.0381 0.7069
vn -0.7066 0.0389 -0.7066
vn -0.6948 0.1864 -0.6947
vn -0.3761 0.1862 -0.9077
vn -0.3825 0.0386 -0.9232
vn 0.3793 -0.1253 -0.9167
vn 0.3418 -0.4463 -0.8270
vn 0.7063 0.0381 -0.7069
vn 0.3821 0.0383 -0.9233
vn -0.0002 0.0385 -0.9993
vn -0.0002 0.1863 -0.9825
vn 0.3757 0.1861 -0.9079
vn 0.6945 0.1862 -0.6950
vn 0.3757 0.1861 0.9079
vn -0.8264 -0.4465 0.3429
vn -0.9166 -0.1252 0.3797
vn -0.9921 -0.1252 -0.0000
vn -0.8951 -0.4458 -0.0003
vn 0.6327 -0.4469 0.6324
vn 0.7012 -0.1255 0.7018
vn -0.0003 -0.1253 -0.9921
vn -0.3798 -0.1252 -0.9165
vn -0.0008 -0.4483 -0.8939
vn 0.9076 0.1860 -0.3765
vn 0.9825 0.1861 0.0000
vn 0.3507 0.3987 -0.8474
vn 0.6481 0.3993 -0.6485
vn 0.6481 0.3993 0.6485
vn 0.3507 0.3987 0.8474
vn -0.3421 -0.4500 -0.8249
vn -0.9231 0.0390 -0.3825
vn -0.0002 0.1863 0.9825
vn -0.3761 0.1862 0.9077
vn -0.9992 0.0392 -0.0000
vn -0.9231 0.0390 0.3825
vn -0.9077 0.1864 0.3760
vn -0.6487 0.3980 -0.6487
vn -0.3512 0.3981 -0.8475
vn -0.0002 0.3986 -0.9171
vn 0.8468 0.3994 -0.3513
vn 0.7518 0.5810 0.3116
vn 0.8468 0.3994 0.3513
vn 0.9166 0.3998 0.0000
vn 0.8136 0.5814 0.0000
vn 0.0000 0.5808 -0.8141
vn 0.3115 0.5807 -0.7522
vn 0.7518 0.5810 -0.3116
vn 0.5754 0.5811 -0.5755
vn -0.8477 0.3975 0.3512
vn -0.6487 0.3980 0.6487
vn -0.5757 0.5805 0.5759
vn -0.7524 0.5801 0.3119
vn -0.7524 0.5801 -0.3119
vn -0.8144 0.5803 0.0000
vn -0.0002 0.3986 0.9171
vn 0.5754 0.5811 0.5755
vn 0.3115 0.5807 0.7522
vn -0.3116 0.5804 -0.7524
vn -0.5395 0.6462 0.5398
vn -0.7053 0.6459 0.2924
vn -0.3116 0.5804 0.7524
vn -0.2920 0.6457 0.7055
vn 0.5398 0.6460 0.5397
vn 0.7055 0.6456 0.2923
vn 0.5398 0.6460 -0.5397
vn 0.7055 0.6456 -0.2923
vn 0.0000 0.5808 0.8141
vn 0.0001 0.6461 0.7633
vn -0.3512 0.3981 0.8475
vn -0.0292 -0.9971 0.0705
vn -0.0543 -0.9969 0.0573
vn 0.2130 -0.9551 -0.2058
vn 0.1143 -0.9543 -0.2761
vn 0.7633 0.6461 0.0000
vn 0.2923 0.6457 0.7055
vn -0.7052 0.6459 -0.2924
vn -0.7631 0.6463 0.0000
vn 0.0001 0.6461 -0.7633
vn 0.2923 0.6457 -0.7055
vn -0.5757 0.5805 -0.5759
vn -0.5395 0.6462 -0.5398
vn -0.2920 0.6457 -0.7055
vn -0.6948 0.1864 0.6947
vn -0.3419 -0.4504 0.8248
vn -0.6315 -0.4492 0.6320
vn 0.4039 -0.8218 0.4019
vn 0.5228 -0.8248 0.2153
vn -0.0017 -0.8235 -0.5673
vn -0.2166 -0.8252 -0.5216
vn 0.0739 -0.9969 0.0281
vn 0.0639 -0.9962 0.0599
vn -0.1997 -0.9572 -0.2093
vn -0.2712 -0.9552 -0.1184
vn -0.0745 -0.9966 -0.0340
vn -0.0542 -0.9970 -0.0552
vn 0.2117 -0.9546 0.2094
vn 0.2740 -0.9559 0.1061
vn 0.0325 -0.9961 -0.0826
vn 0.0635 -0.9962 -0.0596
vn -0.2001 -0.9571 0.2095
vn -0.1137 -0.9575 0.2650
vn -0.0302 -0.9970 -0.0710
vn -0.0028 -0.9966 -0.0820
vn -0.0067 -0.9559 0.2936
vn 0.1125 -0.9546 0.2760
vn -0.0789 -0.9962 0.0358
vn 0.2707 -0.9570 -0.1047
vn 0.0737 -0.9969 -0.0281
vn 0.0767 -0.9971 -0.0000
vn -0.2983 -0.9545 -0.0000
vn -0.2715 -0.9551 0.1182
vn 0.0316 -0.9961 0.0826
vn -0.1157 -0.9574 -0.2646
vn -0.2161 -0.8255 0.5214
vn -0.0018 -0.8243 0.5662
vn -0.0029 -0.9968 0.0798
vn -0.0069 -0.9554 -0.2952
vn -0.0891 -0.9960 -0.0014
vn 0.2880 -0.9576 -0.0034
vn -0.5235 -0.8235 -0.2186
vn -0.5709 -0.8210 -0.0008
vn 0.2168 -0.8215 0.5274
vn 0.5227 -0.8249 -0.2154
vn 0.4037 -0.8220 -0.4017
vn -0.3993 -0.8245 0.4009
vn -0.3993 -0.8251 -0.3998
vn -0.5256 -0.8220 0.2194
vn 0.5642 -0.8256 -0.0000
vn 0.2174 -0.8214 -0.5274
vn 0.2501 -0.9406 0.2298
vn 0.3309 -0.9354 0.1245
vn -0.3207 -0.9364 0.1425
vn -0.2456 -0.9376 0.2460
vn -0.3203 -0.9365 -0.1430
vn -0.3432 -0.9393 -0.0001
vn 0.3563 -0.9344 -0.0041
vn 0.3393 -0.9319 -0.1281
vn 0.2529 -0.9403 -0.2279
vn 0.1343 -0.9446 -0.2996
vn -0.0078 -0.9460 -0.3241
vn -0.1428 -0.9406 -0.3079
vn 0.1319 -0.9447 0.3002
vn -0.0076 -0.9453 0.3263
vn -0.2457 -0.9375 -0.2465
vn -0.1400 -0.9409 0.3084
vn -0.0995 -0.9950 0.0002
vn -0.0053 -1.0000 0.0007
vn 0.1800 -0.9837 -0.0015
vn 0.0953 -0.9954 0.0004
vn -0.1690 -0.9856 -0.0002
vn 0.3352 0.4827 -0.8091
vn 0.6192 0.4831 -0.6191
vn 0.3352 0.4827 0.8091
vn 0.0001 0.4831 0.8756
vn 0.8091 0.4827 0.3352
vn 0.6192 0.4831 0.6191
vn 0.8091 0.4827 -0.3352
vn 0.8755 0.4832 0.0000
vn -0.6190 0.4831 -0.6192
vn -0.3350 0.4827 -0.8092
vn -0.8090 0.4828 0.3353
vn -0.8755 0.4832 0.0000
vn -0.6190 0.4831 0.6192
vn -0.3350 0.4827 0.8092
vn -0.8090 0.4828 -0.3353
vn 0.0001 0.4831 -0.8756
vn 0.6981 0.1588 -0.6982
vn 0.9121 0.1588 -0.3780
vn 0.9873 0.1588 0.0000
vn -0.9873 0.1588 -0.0000
vn -0.9121 0.1588 -0.3780
vn -0.3778 0.1588 0.9122
vn -0.6980 0.1588 0.6982
vn 0.9121 0.1588 0.3780
vn 0.0000 0.1588 -0.9873
vn 0.3778 0.1587 -0.9122
vn 0.6981 0.1588 0.6982
vn 0.3778 0.1587 0.9122
vn -0.9121 0.1588 0.3780
vn 0.0000 0.1588 0.9873
vn -0.3777 0.1588 -0.9122
vn -0.6980 0.1588 -0.6982
vn 0.3826 0.0000 0.9239
vn -0.0000 0.0000 1.0000
vn -0.3826 -0.0000 -0.9239
vn -0.0000 -0.0000 -1.0000
vn -0.3827 0.0000 0.9239
vn -0.7070 -0.0000 -0.7072
vn -0.9238 0.0000 0.3828
vn -1.0000 0.0000 -0.0000
vn -0.9238 0.0000 -0.3828
vn 0.7070 0.0000 -0.7072
vn 0.9238 0.0000 -0.3829
vn 1.0000 0.0000 0.0000
vn -0.7070 0.0000 0.7072
vn 0.9238 0.0000 0.3829
vn 0.3826 0.0000 -0.9239
vn 0.7070 0.0000 0.7072
vn 0.5059 0.6989 0.5057
vn 0.6611 0.6985 0.2738
vn 0.6611 0.6985 0.2739
vn 0.5058 0.6989 0.5057
vn 0.5059 0.6989 -0.5057
vn 0.2740 0.6985 -0.6611
vn 0.2739 0.6985 -0.6611
vn 0.5058 0.6989 -0.5057
vn 0.2740 0.6985 0.6611
vn 0.2739 0.6985 0.6611
vn -0.6611 0.6985 0.2741
vn -0.5057 0.6988 0.5059
vn -0.5056 0.6988 0.5059
vn 0.0001 0.6988 0.7153
vn 0.0001 0.6988 -0.7153
vn -0.2737 0.6985 -0.6612
vn -0.2737 0.6984 0.6613
vn -0.2737 0.6984 0.6612
vn -0.5057 0.6988 -0.5059
vn -0.5056 0.6988 -0.5059
vn -0.7152 0.6989 0.0000
vn -0.6611 0.6985 -0.2741
vn 0.6611 0.6985 -0.2738
vn 0.6611 0.6985 -0.2739
vn 0.7151 0.6990 -0.0000
vn -0.9238 0.0000 -0.3829
vn -0.3826 0.0000 0.9239
vn 0.3827 0.0000 -0.9239
vn 0.7071 0.0000 0.7071
vn 0.7071 0.0000 -0.7072
vn 0.3827 0.0000 0.9239
vn -0.9238 0.0000 0.3829
vn 0.0002 0.8275 -0.5614
vn -0.2148 0.8273 -0.5191
vn -0.1247 0.9452 -0.3017
vn 0.0002 0.9452 -0.3266
vn -0.2148 0.8273 0.5191
vn 0.0002 0.8275 0.5614
vn 0.0002 0.9452 0.3266
vn -0.1247 0.9452 0.3017
vn -0.3968 0.8276 -0.3970
vn -0.2307 0.9452 -0.2310
vn -0.5611 0.8277 -0.0000
vn -0.5188 0.8274 0.2151
vn -0.3014 0.9453 0.1251
vn -0.3264 0.9452 -0.0000
vn -0.5188 0.8274 -0.2152
vn -0.3014 0.9453 -0.1251
vn 0.5192 0.8272 -0.2150
vn 0.3971 0.8275 -0.3969
vn 0.2312 0.9451 -0.2309
vn 0.3018 0.9451 -0.1249
vn 0.5614 0.8275 0.0000
vn 0.3268 0.9451 0.0000
vn -0.3968 0.8276 0.3970
vn -0.2307 0.9452 0.2310
vn 0.5192 0.8272 0.2150
vn 0.3018 0.9451 0.1249
vn 0.2152 0.8272 -0.5191
vn 0.1251 0.9452 -0.3016
vn 0.3971 0.8275 0.3969
vn 0.2312 0.9451 0.2309
vn 0.2152 0.8272 0.5191
vn 0.1251 0.9452 0.3016
vn 0.0002 1.0000 -0.0000
vn 0.2553 -0.7445 -0.6169
vn -0.0001 -0.7446 -0.6675
vn 0.6166 -0.7445 0.2557
vn 0.6673 -0.7447 -0.0000
vn 0.6167 -0.7445 0.2557
vn -0.4719 -0.7447 0.4719
vn -0.2555 -0.7445 0.6168
vn -0.2556 -0.7445 0.6167
vn -0.4720 -0.7447 0.4719
vn -0.6167 -0.7446 -0.2555
vn -0.6673 -0.7448 0.0000
vn -0.6167 -0.7446 -0.2554
vn 0.6166 -0.7445 -0.2558
vn 0.6167 -0.7445 -0.2557
vn 0.4718 -0.7446 -0.4721
vn -0.4719 -0.7447 -0.4719
vn -0.4720 -0.7447 -0.4719
vn -0.6167 -0.7446 0.2555
vn -0.6167 -0.7446 0.2554
vn -0.2555 -0.7445 -0.6167
vn -0.2556 -0.7445 -0.6167
vn -0.0001 -0.7446 0.6675
vn 0.2553 -0.7445 0.6169
vn 0.4718 -0.7446 0.4721
s 1
f 28/1/1 29/2/2 22/3/3 21/4/4
f 12/5/5 13/6/6 10/7/7 9/8/8
f 32/9/9 40/10/10 39/11/11 35/12/12
f 107/13/13 106/14/14 105/15/15 104/16/16
f 9/17/8 15/18/17 18/19/18 12/20/5
f 21/21/4 25/22/19 31/23/20 28/24/1
f 12/5/5 16/25/21 14/26/22 13/6/6
f 94/27/23 97/28/24 96/29/25 90/30/26
f 9/8/8 10/7/7 5/31/27 7/32/28
f 24/33/29 16/34/21 12/35/5 18/36/18
f 24/33/29 27/37/30 26/38/31 23/39/32
f 102/40/33 99/41/34 98/42/35 100/43/36
f 4/44/37 7/32/28 5/31/27 1/45/38
f 15/18/17 9/17/8 7/46/28 11/47/39
f 4/48/37 8/49/40 11/47/39 7/46/28
f 6/50/41 60/51/42 59/52/43 8/49/40
f 8/49/40 59/52/43 20/53/44 11/47/39
f 26/38/31 34/54/45 25/22/19 23/39/32
f 38/55/46 37/56/47 109/57/48 110/58/49
f 21/4/4 22/3/3 17/59/50 19/60/51
f 6/50/41 8/49/40 4/48/37 3/61/52
f 6/50/41 3/61/52 101/62/53 100/43/36
f 3/63/52 4/44/37 1/45/38 2/64/54
f 18/19/18 15/18/17 56/65/55 54/66/56
f 59/52/43 61/67/57 58/68/58 20/53/44
f 36/69/59 46/70/60 34/54/45 26/38/31
f 103/71/61 101/72/53 3/63/52 2/64/54
f 105/73/15 102/40/33 100/43/36 101/62/53
f 106/74/14 108/75/62 102/40/33 105/73/15
f 31/23/20 44/76/63 43/77/64 40/10/10
f 111/78/65 41/79/66 112/80/67 96/29/25
f 6/50/41 100/43/36 98/42/35 60/51/42
f 99/41/34 95/81/68 76/82/69 98/42/35
f 60/51/42 98/42/35 76/82/69 62/83/70
f 57/84/71 56/65/55 20/53/44 58/68/58
f 78/85/72 52/86/73 77/87/74 75/88/75
f 62/83/70 65/89/76 64/90/77 61/67/57
f 66/91/78 57/84/71 58/68/58 63/92/79
f 61/67/57 64/90/77 63/92/79 58/68/58
f 57/84/71 77/93/74 54/66/56 56/65/55
f 87/94/80 45/95/81 55/96/82 85/97/83
f 18/36/18 54/98/56 27/37/30 24/33/29
f 91/99/84 94/27/23 90/30/26 88/100/85
f 27/37/30 52/86/73 36/69/59 26/38/31
f 54/98/56 77/87/74 52/86/73 27/37/30
f 34/54/45 44/76/63 31/23/20 25/22/19
f 46/70/60 48/101/86 44/76/63 34/54/45
f 49/102/87 50/103/88 46/70/60 36/69/59
f 52/86/73 78/85/72 49/102/87 36/69/59
f 62/83/70 76/82/69 74/104/89 65/89/76
f 83/105/90 84/106/91 85/107/83 55/108/82
f 83/105/90 55/108/82 51/109/92 82/110/93
f 79/111/94 49/112/87 78/113/72 71/114/95
f 56/65/55 15/18/17 11/47/39 20/53/44
f 104/16/16 105/15/15 101/72/53 103/71/61
f 16/34/21 24/33/29 23/39/32 19/115/51
f 69/116/96 70/117/97 66/118/78 63/119/79
f 82/110/93 51/109/92 53/120/98 81/121/99
f 48/101/86 53/122/98 51/123/92 47/124/100
f 298/125/101 300/126/102 123/127/103 122/128/104
f 75/129/75 66/118/78 70/117/97 73/130/105
f 44/76/63 48/101/86 47/124/100 43/77/64
f 77/93/74 57/84/71 66/91/78 75/131/75
f 80/132/106 81/121/99 53/120/98 50/133/88
f 89/134/107 91/135/84 88/136/85 86/137/108
f 65/138/76 68/139/109 67/140/110 64/141/77
f 64/141/77 67/140/110 69/116/96 63/119/79
f 74/142/89 93/143/111 92/144/112 72/145/113
f 92/144/112 93/143/111 91/135/84 89/134/107
f 93/146/111 95/81/68 94/27/23 91/99/84
f 71/114/95 78/113/72 75/147/75 73/148/105
f 84/106/91 86/137/108 88/136/85 85/107/83
f 95/81/68 93/146/111 74/104/89 76/82/69
f 90/30/26 87/94/80 85/97/83 88/100/85
f 65/138/76 74/142/89 72/145/113 68/139/109
f 79/111/94 80/132/106 50/133/88 49/112/87
f 55/96/82 45/95/81 47/124/100 51/123/92
f 50/103/88 53/122/98 48/101/86 46/70/60
f 96/29/25 112/80/67 87/94/80 90/30/26
f 95/81/68 99/41/34 97/28/24 94/27/23
f 112/80/67 42/149/114 45/95/81 87/94/80
f 60/51/42 62/83/70 61/67/57 59/52/43
f 108/75/62 97/28/24 99/41/34 102/40/33
f 40/10/10 43/77/64 42/149/114 39/11/11
f 25/22/19 21/21/4 19/115/51 23/39/32
f 37/150/47 41/79/66 111/78/65 109/151/48
f 28/1/1 32/152/9 30/153/115 29/2/2
f 35/154/12 33/155/116 30/153/115 32/152/9
f 37/56/47 38/55/46 33/155/116 35/154/12
f 40/10/10 32/9/9 28/24/1 31/23/20
f 42/149/114 112/80/67 41/79/66 39/11/11
f 16/25/21 19/60/51 17/59/50 14/26/22
f 107/13/13 110/58/49 109/57/48 106/14/14
f 39/11/11 41/79/66 37/150/47 35/12/12
f 106/74/14 109/151/48 111/78/65 108/75/62
f 111/78/65 96/29/25 97/28/24 108/75/62
f 43/77/64 47/124/100 45/95/81 42/149/114
f 14/26/22 17/59/50 292/156/117 289/157/118
f 284/158/119 310/159/120 103/71/61 2/64/54
f 290/160/121 291/161/122 119/162/123 118/163/124
f 306/164/125 308/165/126 127/166/127 126/167/128
f 279/168/129 282/169/130 114/170/131 113/171/132
f 309/172/133 283/173/134 115/174/135 128/175/136
f 300/126/102 301/176/137 124/177/138 123/127/103
f 286/178/139 288/179/140 117/180/141 116/181/142
f 291/161/122 294/182/143 120/183/144 119/162/123
f 30/153/115 297/184/145 295/185/146 29/2/2
f 296/186/147 298/125/101 122/128/104 121/187/148
f 283/173/134 279/168/129 113/171/132 115/174/135
f 304/188/149 306/164/125 126/167/128 125/189/150
f 107/13/13 305/190/151 303/191/152 110/58/49
f 17/59/50 22/3/3 293/192/153 292/156/117
f 10/7/7 285/193/154 281/194/155 5/31/27
f 30/153/115 33/155/116 299/195/156 297/184/145
f 29/2/2 295/185/146 293/192/153 22/3/3
f 294/182/143 296/186/147 121/187/148 120/183/144
f 104/16/16 307/196/157 305/190/151 107/13/13
f 38/55/46 110/58/49 303/191/152 302/197/158
f 308/165/126 309/172/133 128/175/136 127/166/127
f 301/176/137 304/188/149 125/189/150 124/177/138
f 10/7/7 13/6/6 287/198/159 285/193/154
f 282/169/130 286/178/139 116/181/142 114/170/131
f 14/26/22 289/157/118 287/198/159 13/6/6
f 5/31/27 281/194/155 280/199/160 1/45/38
f 33/155/116 38/55/46 302/197/158 299/195/156
f 288/179/140 290/160/121 118/163/124 117/180/141
f 103/71/61 310/159/120 307/196/157 104/16/16
f 126/167/128 127/166/127 143/200/161 142/201/162
f 114/170/131 116/181/142 132/202/163 130/203/164
f 117/180/141 118/163/124 134/204/165 133/205/166
f 124/177/138 125/189/150 141/206/167 140/207/168
f 122/128/104 123/127/103 139/208/169 138/209/170
f 120/183/144 121/187/148 137/210/171 136/211/172
f 127/166/127 128/175/136 144/212/173 143/200/161
f 128/175/136 115/174/135 131/213/174 144/212/173
f 118/163/124 119/162/123 135/214/175 134/204/165
f 125/189/150 126/167/128 142/201/162 141/206/167
f 113/171/132 114/170/131 130/203/164 129/215/176
f 123/127/103 124/177/138 140/207/168 139/208/169
f 116/181/142 117/180/141 133/205/166 132/202/163
f 115/174/135 113/171/132 129/215/176 131/213/174
f 121/187/148 122/128/104 138/209/170 137/210/171
f 119/162/123 120/183/144 136/211/172 135/214/175
f 147/216/177 136/211/172 137/210/171 145/217/178
f 139/208/169 140/207/168 141/206/167 149/218/179
f 144/212/173 131/213/174 145/217/178 146/219/180
f 134/204/165 135/214/175 148/220/181 133/205/166
f 143/200/161 144/212/173 146/219/180 149/218/179
f 135/214/175 136/211/172 147/216/177 148/220/181
f 137/210/171 138/209/170 146/219/180 145/217/178
f 131/213/174 129/215/176 147/216/177 145/217/178
f 130/203/164 132/202/163 133/205/166 148/220/181
f 129/215/176 130/203/164 148/220/181 147/216/177
f 142/201/162 143/200/161 149/218/179 141/206/167
f 138/209/170 139/208/169 149/218/179 146/219/180
f 69/116/96 67/140/110 150/221/182 152/222/183
f 81/121/99 80/132/106 158/223/184 159/224/185
f 79/111/94 71/114/95 154/225/186 157/226/187
f 80/132/106 79/111/94 157/226/187 158/223/184
f 70/117/97 69/116/96 152/222/183 153/227/188
f 73/130/105 70/117/97 153/227/188 156/228/189
f 72/145/113 92/144/112 165/229/190 155/230/191
f 86/137/108 84/106/91 162/231/192 163/232/193
f 84/106/91 83/105/90 161/233/194 162/231/192
f 82/110/93 81/121/99 159/224/185 160/234/195
f 83/105/90 82/110/93 160/234/195 161/233/194
f 89/134/107 86/137/108 163/232/193 164/235/196
f 71/114/95 73/148/105 156/236/189 154/225/186
f 67/140/110 68/139/109 151/237/197 150/221/182
f 92/144/112 89/134/107 164/235/196 165/229/190
f 68/139/109 72/145/113 155/230/191 151/237/197
f 153/227/188 152/222/183 168/238/198 169/239/199
f 156/228/189 153/227/188 169/239/199 172/240/200
f 164/235/196 163/232/193 179/241/201 180/242/202
f 161/233/194 160/234/195 176/243/203 177/244/204
f 154/225/186 156/236/189 172/245/200 170/246/205
f 150/221/182 151/237/197 167/247/206 166/248/207
f 157/226/187 154/225/186 170/246/205 173/249/208
f 152/222/183 150/221/182 166/248/207 168/238/198
f 158/223/184 157/226/187 173/249/208 174/250/209
f 162/231/192 161/233/194 177/244/204 178/251/210
f 159/224/185 158/223/184 174/250/209 175/252/211
f 151/237/197 155/230/191 171/253/212 167/247/206
f 160/234/195 159/224/185 175/252/211 176/243/203
f 155/230/191 165/229/190 181/254/213 171/253/212
f 163/232/193 162/231/192 178/251/210 179/241/201
f 165/229/190 164/235/196 180/242/202 181/254/213
f 175/252/211 174/250/209 190/255/214 191/256/215
f 167/247/206 171/253/212 187/257/216 183/258/217
f 176/243/203 175/252/211 191/256/215 192/259/218
f 171/253/212 181/254/213 197/260/219 187/257/216
f 179/241/201 178/251/210 194/261/220 195/262/221
f 181/254/213 180/242/202 196/263/222 197/260/219
f 169/239/199 168/238/198 184/264/223 185/265/224
f 172/240/200 169/239/199 185/265/224 188/266/225
f 180/242/202 179/241/201 195/262/221 196/263/222
f 177/244/204 176/243/203 192/259/218 193/267/226
f 170/246/205 172/245/200 188/268/225 186/269/227
f 166/248/207 167/247/206 183/258/217 182/270/228
f 173/249/208 170/246/205 186/269/227 189/271/229
f 168/238/198 166/248/207 182/270/228 184/264/223
f 174/250/209 173/249/208 189/271/229 190/255/214
f 178/251/210 177/244/204 193/267/226 194/261/220
f 269/272/230 263/273/231 202/274/232 205/275/233
f 270/276/234 264/277/235 198/278/236 200/279/237
f 271/280/238 269/272/230 205/275/233 206/281/239
f 272/282/240 265/283/241 209/284/242 210/285/240
f 273/286/243 271/280/238 206/281/239 207/287/243
f 274/288/244 266/289/245 203/290/245 199/291/244
f 275/292/246 273/286/243 207/287/243 208/293/247
f 266/289/245 267/294/248 213/295/249 203/290/245
f 276/296/250 272/282/240 210/285/240 211/297/250
f 267/294/248 268/298/251 212/299/251 213/295/249
f 277/300/252 270/276/234 200/279/237 201/301/253
f 278/302/254 277/300/252 201/301/253 204/303/254
f 268/298/251 276/296/250 211/297/250 212/299/251
f 265/283/241 275/292/246 208/293/247 209/284/242
f 263/273/231 278/304/254 204/305/254 202/274/232
f 264/277/235 274/288/244 199/291/244 198/278/236
f 204/303/225 201/301/224 217/306/224 220/307/225
f 212/299/255 211/297/221 227/308/221 228/309/222
f 209/284/226 208/293/256 224/310/218 225/311/226
f 202/274/227 204/305/225 220/312/225 218/313/227
f 198/278/257 199/291/217 215/314/217 214/315/228
f 205/275/258 202/274/227 218/313/227 221/316/229
f 200/279/259 198/278/257 214/315/228 216/317/223
f 206/281/260 205/275/258 221/316/229 222/318/214
f 210/285/261 209/284/226 225/311/226 226/319/220
f 207/287/215 206/281/260 222/318/214 223/320/215
f 199/291/217 203/290/216 219/321/216 215/314/217
f 208/293/256 207/287/215 223/320/215 224/310/218
f 203/290/216 213/295/219 229/322/219 219/321/216
f 211/297/221 210/285/261 226/319/220 227/308/221
f 213/295/219 212/299/255 228/309/222 229/322/219
f 201/301/224 200/279/259 216/317/223 217/306/224
f 215/323/262 219/324/263 235/325/264 231/326/265
f 224/327/266 223/328/267 239/329/268 240/330/269
f 219/324/263 229/331/270 245/332/271 235/325/264
f 227/333/272 226/334/273 242/335/274 243/336/275
f 229/331/270 228/337/276 244/338/277 245/332/271
f 217/339/278 216/340/279 232/341/280 233/342/281
f 220/343/282 217/339/278 233/342/281 236/344/283
f 228/337/276 227/333/272 243/336/275 244/338/277
f 225/345/284 224/327/266 240/330/269 241/346/285
f 218/347/286 220/343/282 236/344/283 234/348/287
f 214/349/288 215/323/262 231/326/265 230/350/289
f 221/351/290 218/347/286 234/348/287 237/352/291
f 216/340/279 214/349/288 230/350/289 232/341/280
f 222/353/292 221/351/290 237/352/291 238/354/293
f 226/334/273 225/345/284 241/346/285 242/335/274
f 223/328/267 222/353/292 238/354/293 239/329/268
f 236/344/283 233/342/281 246/355/294
f 244/338/277 243/336/275 246/355/294
f 241/346/285 240/330/269 246/355/294
f 234/348/287 236/344/283 246/355/294
f 230/350/289 231/326/265 246/355/294
f 237/352/291 234/348/287 246/355/294
f 232/341/280 230/350/289 246/355/294
f 238/354/293 237/352/291 246/355/294
f 242/335/274 241/346/285 246/355/294
f 239/329/268 238/354/293 246/355/294
f 231/326/265 235/325/264 246/355/294
f 240/330/269 239/329/268 246/355/294
f 235/325/264 245/332/271 246/355/294
f 243/336/275 242/335/274 246/355/294
f 245/332/271 244/338/277 246/355/294
f 233/342/281 232/341/280 246/355/294
f 182/356/295 183/357/296 255/358/296 250/359/295
f 186/360/297 188/361/298 262/362/298 248/363/299
f 193/364/300 192/365/301 257/366/302 253/367/303
f 196/368/304 195/369/305 259/370/305 260/371/306
f 188/372/298 185/373/307 261/374/308 262/375/298
f 185/373/307 184/376/309 249/377/309 261/374/308
f 197/378/310 196/368/304 260/371/306 258/379/311
f 195/369/305 194/380/312 252/381/313 259/370/305
f 187/382/314 197/378/310 258/379/311 256/383/315
f 192/365/301 191/384/316 254/385/316 257/366/302
f 183/357/296 187/382/314 256/383/315 255/358/296
f 191/384/316 190/386/317 251/387/317 254/385/316
f 194/380/312 193/364/300 253/367/303 252/381/313
f 190/386/317 189/388/318 247/389/318 251/387/317
f 184/376/309 182/356/295 250/359/295 249/377/309
f 189/388/318 186/360/297 248/363/299 247/389/318
f 250/359/257 255/358/217 274/288/217 264/277/228
f 248/363/227 262/362/225 278/304/225 263/273/227
f 253/367/226 257/366/256 275/292/218 265/283/226
f 260/371/255 259/370/221 276/296/221 268/298/222
f 262/375/225 261/374/224 277/300/224 278/302/225
f 261/374/224 249/377/259 270/276/223 277/300/224
f 258/379/219 260/371/255 268/298/222 267/294/219
f 259/370/221 252/381/261 272/282/220 276/296/221
f 256/383/216 258/379/219 267/294/219 266/289/216
f 257/366/256 254/385/215 273/286/215 275/292/218
f 255/358/217 256/383/216 266/289/216 274/288/217
f 254/385/215 251/387/260 271/280/214 273/286/215
f 252/381/261 253/367/226 265/283/226 272/282/220
f 251/387/260 247/389/258 269/272/229 271/280/214
f 249/377/259 250/359/257 264/277/228 270/276/223
f 247/389/258 248/363/227 263/273/227 269/272/229
f 280/199/160 281/194/155 282/169/130 279/168/129
f 279/168/129 283/173/134 284/158/119 280/199/160
f 292/156/117 293/192/153 294/182/143 291/161/122
f 281/194/155 285/193/154 286/178/139 282/169/130
f 302/197/158 303/191/152 304/188/149 301/176/137
f 293/192/153 295/185/146 296/186/147 294/182/143
f 283/173/134 309/172/133 310/159/120 284/158/119
f 303/191/152 305/190/151 306/164/125 304/188/149
f 285/193/154 287/198/159 288/179/140 286/178/139
f 295/185/146 297/184/145 298/125/101 296/186/147
f 305/190/151 307/196/157 308/165/126 306/164/125
f 287/198/159 289/157/118 290/160/121 288/179/140
f 297/184/145 299/195/156 300/126/102 298/125/101
f 307/196/157 310/159/120 309/172/133 308/165/126
f 289/157/118 292/156/117 291/161/122 290/160/121
f 299/195/156 302/197/158 301/176/137 300/126/102
f 280/199/160 284/158/119 2/64/54 1/45/38
